<svg width="50" height="51" viewBox="0 0 50 51" fill="none" xmlns="http://www.w3.org/2000/svg">
<path d="M42.6351 44.5764C43.4634 44.5764 44.1351 43.9046 44.1351 43.0764V7.44141C44.1351 6.61318 43.4634 5.94141 42.6351 5.94141H7.00012C6.1719 5.94141 5.50012 6.61318 5.50012 7.44141V43.0764C5.50012 43.9046 6.1719 44.5764 7.00012 44.5764H42.6351ZM42.6351 46.5764H7.00012C5.06736 46.5764 3.50012 45.0092 3.50012 43.0764V7.44141C3.50012 5.50864 5.06736 3.94141 7.00012 3.94141H42.6351C44.5679 3.94141 46.1351 5.50864 46.1351 7.44141V43.0764C46.1351 45.0092 44.5679 46.5764 42.6351 46.5764Z" fill="#2F2F2F"/>
<path d="M17.7551 11.2589V39.2589C17.7551 39.8112 18.2028 40.2589 18.7551 40.2589C19.3074 40.2589 19.7551 39.8112 19.7551 39.2589V11.2589C19.7551 10.7066 19.3074 10.2589 18.7551 10.2589C18.2028 10.2589 17.7551 10.7066 17.7551 11.2589Z" fill="#2F2F2F"/>
<path d="M26.4839 24.6002C30.0736 24.6002 32.9839 21.6899 32.9839 18.1002C32.9839 14.5795 30.1296 11.7252 26.6089 11.7252H19.7549V24.6002H26.4839ZM26.4839 26.6002H18.7549C18.2026 26.6002 17.7549 26.1525 17.7549 25.6002V10.7252C17.7549 10.1729 18.2026 9.72516 18.7549 9.72516H26.6089C31.2341 9.72516 34.9839 13.4749 34.9839 18.1002C34.9839 22.7944 31.1781 26.6002 26.4839 26.6002Z" fill="#2F2F2F"/>
</svg>
