<svg width="68" height="61" viewBox="0 0 68 61" fill="none" xmlns="http://www.w3.org/2000/svg">
<path d="M6.61996 40.1416L9.5351 37.3989L17.9403 29.4907L5.28996 17.5884C4.90331 17.2246 4.90331 16.6366 5.28996 16.2728C5.6766 15.9091 6.30155 15.9091 6.68819 16.2728L29.1421 37.3989H63.3425H64.3313V42.0508H7.4595C7.43774 42.0508 7.41796 42.0433 7.39621 42.0415L6.6872 42.7085C6.49537 42.89 6.24222 42.9811 5.98907 42.9811C5.73593 42.9811 5.48278 42.89 5.28996 42.7085C4.90331 42.3448 4.90331 41.7568 5.28996 41.393L6.61996 40.1416ZM19.3386 30.8062L12.3316 37.3989H26.3456L19.3386 30.8062ZM62.3536 40.19V39.2596H28.3233H10.3539L9.36502 40.19H62.3536Z" fill="#2F2F2F"/>
<path d="M14.5999 18.1865L30.4388 33.5" stroke="#2F2F2F" stroke-width="2" stroke-linecap="round"/>
<path d="M30.9388 34H59.9388" stroke="#2F2F2F" stroke-width="2" stroke-linecap="round"/>
</svg>
