<svg width="50" height="51" viewBox="0 0 50 51" fill="none" xmlns="http://www.w3.org/2000/svg">
<path d="M9.09375 48.8633C5.73438 48.8633 3 46.1289 3 42.7695V7.53516C3 4.17578 5.73438 1.44141 9.09375 1.44141H40.3438C43.7031 1.44141 46.4375 4.17578 46.4375 7.53516V42.7695C46.4375 46.1289 43.7031 48.8633 40.3438 48.8633H9.09375ZM5.34375 42.7695C5.34375 44.8398 7.02344 46.5195 9.09375 46.5195H40.3438C42.4141 46.5195 44.0938 44.8398 44.0938 42.7695V12.5352H5.34375V42.7695ZM44.0938 10.1914V7.53516C44.0938 5.46484 42.4141 3.78516 40.3438 3.78516H9.09375C7.02344 3.78516 5.34375 5.46484 5.34375 7.53516V10.1914H44.0938Z" fill="#2F2F2F"/>
<path d="M24.7578 44.0977C16.75 44.0977 10.2656 37.5742 10.2656 29.5664C10.2656 21.5586 16.7891 15.0352 24.7969 15.0352C32.8047 15.0352 39.3281 21.5586 39.3281 29.5664C39.2891 37.5742 32.7656 44.0977 24.7578 44.0977ZM13.1172 33.0039C14.6406 38.1602 19.4453 41.7148 24.7969 41.7148C31.2422 41.7148 36.5547 36.7148 36.9453 30.3086C35.3047 31.8711 32.7656 33.668 29.6406 33.668C26.9453 33.668 25.0703 32.3008 23.4297 31.0898C22.0234 30.0742 20.8516 29.1758 19.2891 29.1758C16.3203 29.2148 13.6641 32.3008 13.1172 33.0039ZM19.25 26.8711C21.5938 26.8711 23.1953 28.082 24.7969 29.2539C26.2812 30.3477 27.6484 31.3633 29.6016 31.3633C31.5938 31.3633 33.3516 30.2695 34.4453 29.3711C35.6562 28.3945 36.3594 27.457 36.4375 27.3398C36.5156 27.2617 36.5547 27.1836 36.6719 27.1055C35.5 21.4805 30.5 17.3789 24.7578 17.3789C18.0781 17.3789 12.6094 22.8477 12.6094 29.5664V30.0742C14.1328 28.5898 16.5156 26.8711 19.25 26.8711ZM11.0859 8.86328C10.1484 8.86328 9.36719 8.08203 9.36719 7.14453C9.36719 6.20703 10.1484 5.42578 11.0859 5.42578C12.0234 5.42578 12.8047 6.20703 12.8047 7.14453C12.8047 8.08203 12.0625 8.86328 11.0859 8.86328ZM16.5547 8.86328C15.6172 8.86328 14.8359 8.08203 14.8359 7.14453C14.8359 6.20703 15.6172 5.42578 16.5547 5.42578C17.4922 5.42578 18.2734 6.20703 18.2734 7.14453C18.2734 8.08203 17.5312 8.86328 16.5547 8.86328Z" fill="#2F2F2F"/>
</svg>
