<svg width="50" height="51" viewBox="0 0 50 51" fill="none" xmlns="http://www.w3.org/2000/svg">
<path d="M44.2031 23.4102V16.0195C44.2011 14.6927 43.6725 13.421 42.7336 12.4835C41.7947 11.5461 40.5221 11.0195 39.1953 11.0195H12.0469C11.3892 11.0185 10.7378 11.147 10.1299 11.3977C9.5219 11.6485 8.96927 12.0165 8.50353 12.4808C8.03778 12.9451 7.66805 13.4965 7.41544 14.1037C7.16282 14.7109 7.03228 15.3619 7.03125 16.0195V23.4102" stroke="#2F2F2F" stroke-width="3"/>
<path d="M45.8515 23.4101H44.289C44.1267 23.4101 43.9659 23.4426 43.8164 23.5059C43.6669 23.5692 43.5316 23.6619 43.4187 23.7785C43.3057 23.8951 43.2173 24.0333 43.1588 24.1847C43.1003 24.3362 43.0729 24.4979 43.0781 24.6601C43.0781 24.6601 43.0781 27.7851 43.0781 28.5039C43.0781 28.8008 42.2968 28.6601 41.2031 28.6211H10.039C9.43747 28.6211 8.17966 28.8398 8.17966 28.6211C8.17966 27.457 8.17966 24.7148 8.17966 24.7148C8.19153 24.547 8.16854 24.3786 8.11213 24.2201C8.05572 24.0617 7.96712 23.9166 7.85191 23.7941C7.7367 23.6715 7.59736 23.5741 7.44267 23.5081C7.28799 23.442 7.1213 23.4086 6.9531 23.4101H5.3906C5.22789 23.4101 5.06681 23.4426 4.91687 23.5058C4.76693 23.569 4.63116 23.6616 4.51757 23.7781C4.40398 23.8946 4.31487 24.0327 4.25549 24.1841C4.19612 24.3356 4.16768 24.4975 4.17185 24.6601V36.3789C4.17185 36.6192 4.26733 36.8498 4.43728 37.0197C4.60724 37.1897 4.83775 37.2851 5.0781 37.2851H46.1562C46.2759 37.2862 46.3946 37.2635 46.5054 37.2184C46.6163 37.1733 46.7171 37.1067 46.8021 37.0225C46.8871 36.9382 46.9545 36.838 47.0006 36.7275C47.0466 36.6171 47.0703 36.4986 47.0703 36.3789V24.6601C47.0745 24.4975 47.046 24.3356 46.9866 24.1841C46.9273 24.0327 46.8381 23.8946 46.7246 23.7781C46.611 23.6616 46.4752 23.569 46.3253 23.5058C46.1753 23.4426 46.0142 23.4101 45.8515 23.4101Z" stroke="#2F2F2F" stroke-width="3"/>
<path d="M9.26562 40.8164V37.2852" stroke="#2F2F2F" stroke-width="3"/>
<path d="M41.3828 40.8164V37.2852" stroke="#2F2F2F" stroke-width="3"/>
</svg>
