<svg width="44" height="46" viewBox="0 0 44 46" fill="none" xmlns="http://www.w3.org/2000/svg">
<path d="M21.6117 3.625C15.6145 3.625 10.7356 8.6118 10.7356 14.8984C10.7356 16.2917 11.0193 17.8123 11.5298 19.1801H11.5217L11.5704 19.282C11.6109 19.3755 11.6514 19.4689 11.6919 19.5624L21.6117 41.6844L31.4829 19.6728L31.5315 19.5709C31.572 19.4774 31.6207 19.384 31.6612 19.282L31.6936 19.1886C32.2204 17.8208 32.4878 16.3766 32.4878 14.9154C32.4878 8.6118 27.609 3.625 21.6117 3.625ZM21.6117 18.4835C19.5127 18.4835 17.8107 16.6994 17.8107 14.4991C17.8107 12.2988 19.5127 10.5148 21.6117 10.5148C23.7108 10.5148 25.4127 12.2988 25.4127 14.4991C25.4127 16.6994 23.7108 18.4835 21.6117 18.4835Z" fill="#89023E"/>
</svg>
