<svg width="28" height="28" viewBox="0 0 28 28" fill="none" xmlns="http://www.w3.org/2000/svg">
<path d="M13.5073 12.785C14.3973 12.785 15.2674 12.5124 16.0074 12.0015C16.7474 11.4907 17.3242 10.7646 17.6648 9.91505C18.0054 9.06554 18.0945 8.13076 17.9209 7.22892C17.7472 6.32709 17.3186 5.4987 16.6893 4.84851C16.06 4.19832 15.2581 3.75554 14.3852 3.57615C13.5123 3.39676 12.6075 3.48883 11.7852 3.84071C10.963 4.19259 10.2602 4.78848 9.76571 5.55302C9.27125 6.31756 9.00732 7.21641 9.00732 8.13592C9.00732 9.36894 9.48143 10.5515 10.3253 11.4233C11.1693 12.2952 12.3139 12.785 13.5073 12.785Z" fill="#89023E"/>
<path d="M20.2573 24.4077C20.5557 24.4077 20.8418 24.2852 21.0528 24.0673C21.2638 23.8493 21.3823 23.5537 21.3823 23.2454C21.3823 21.0876 20.5526 19.0182 19.0758 17.4925C17.5989 15.9667 15.5959 15.1095 13.5073 15.1095C11.4187 15.1095 9.41571 15.9667 7.93886 17.4925C6.46201 19.0182 5.63232 21.0876 5.63232 23.2454C5.63232 23.5537 5.75085 23.8493 5.96183 24.0673C6.17281 24.2852 6.45896 24.4077 6.75732 24.4077H20.2573Z" fill="#89023E"/>
</svg>
