<svg width="27" height="26" viewBox="0 0 27 26" fill="none" xmlns="http://www.w3.org/2000/svg">
<g clip-path="url(#clip0_1_144)">
<path fill-rule="evenodd" clip-rule="evenodd" d="M19.9629 3.02212L23.0103 3.02212V6.06259H24.3978V1.59644L19.9629 1.59644V3.02212Z" fill="#89023E"/>
<path fill-rule="evenodd" clip-rule="evenodd" d="M1.41869 6.11004V3.02215H4.52034V1.50891H0.04834L0.0483398 6.11004H1.41869Z" fill="#89023E"/>
<path fill-rule="evenodd" clip-rule="evenodd" d="M4.52034 24.4973H1.4814V21.5143H0.0483398V25.9924H4.52034V24.4973Z" fill="#89023E"/>
<path fill-rule="evenodd" clip-rule="evenodd" d="M22.9482 9.17651V12.2505H24.4607V9.17651H22.9482Z" fill="#89023E"/>
<path fill-rule="evenodd" clip-rule="evenodd" d="M22.9482 15.2942V18.2931H24.4496V15.2942H22.9482Z" fill="#89023E"/>
<path fill-rule="evenodd" clip-rule="evenodd" d="M13.7717 1.52942V3.00581H16.8061V1.52942H13.7717Z" fill="#89023E"/>
<path fill-rule="evenodd" clip-rule="evenodd" d="M7.65405 1.52942V3.01682H10.7045V1.52942H7.65405Z" fill="#89023E"/>
<path fill-rule="evenodd" clip-rule="evenodd" d="M13.7717 24.4706V25.9585H16.7663V24.4706H13.7717Z" fill="#89023E"/>
<path fill-rule="evenodd" clip-rule="evenodd" d="M7.65405 24.4706V25.9888H10.6935V24.4706H7.65405Z" fill="#89023E"/>
<path fill-rule="evenodd" clip-rule="evenodd" d="M0.00708008 9.17651V12.2204H1.50662V9.17651H0.00708008Z" fill="#89023E"/>
<path fill-rule="evenodd" clip-rule="evenodd" d="M0.00708008 15.2942V18.294H1.46648V15.2942H0.00708008Z" fill="#89023E"/>
<path fill-rule="evenodd" clip-rule="evenodd" d="M22.9574 21.4117V24.5822H19.8894V26.028H24.4819V21.4117H22.9574Z" fill="#89023E"/>
</g>
<defs>
<clipPath id="clip0_1_144">
<rect width="26" height="26" fill="white" transform="translate(0.00708008)"/>
</clipPath>
</defs>
</svg>
