<svg width="101" height="95" viewBox="0 0 101 95" fill="none" xmlns="http://www.w3.org/2000/svg">
<path d="M7 94.8651V93.8758L8.00614 93.6767V86.7131L7 86.5075V85.5118H8.00614H10.8359C11.6534 85.5118 12.3682 85.7088 12.9803 86.1028C13.5965 86.4968 14.0765 87.0385 14.4203 87.7281C14.7641 88.4176 14.936 89.2077 14.936 90.0985V90.2848C14.936 91.1627 14.7683 91.9486 14.4329 92.6424C14.0975 93.3319 13.6238 93.8758 13.0117 94.2741C12.4038 94.6681 11.6932 94.8651 10.8799 94.8651H7ZM9.59082 93.6188H10.7982C11.3348 93.6188 11.7918 93.4732 12.1691 93.182C12.5506 92.8865 12.8419 92.4882 13.0432 91.9872C13.2444 91.4818 13.345 90.9143 13.345 90.2848V90.0921C13.345 89.4454 13.2444 88.8737 13.0432 88.3769C12.8419 87.8758 12.5506 87.4818 12.1691 87.1949C11.7918 86.9079 11.3348 86.7645 10.7982 86.7645H9.59082V93.6188Z" fill="white"/>
<path d="M20.0233 95C19.4154 95 18.8662 94.8844 18.3757 94.6531C17.8852 94.4176 17.4639 94.0878 17.1117 93.6638C16.7638 93.2398 16.4955 92.7388 16.3068 92.1606C16.1182 91.5824 16.0239 90.9486 16.0239 90.2591V90.1178C16.0239 89.4325 16.1182 88.8009 16.3068 88.2227C16.4955 87.6445 16.7638 87.1435 17.1117 86.7195C17.4639 86.2912 17.8852 85.9615 18.3757 85.7302C18.8662 85.4946 19.4133 85.3769 20.017 85.3769C20.6416 85.3769 21.2013 85.4946 21.696 85.7302C22.1907 85.9615 22.612 86.2912 22.96 86.7195C23.3079 87.1435 23.5741 87.6445 23.7586 88.2227C23.943 88.8009 24.0353 89.4325 24.0353 90.1178V90.2591C24.0353 90.9486 23.943 91.5824 23.7586 92.1606C23.5741 92.7388 23.3079 93.2398 22.96 93.6638C22.612 94.0878 22.1907 94.4176 21.696 94.6531C21.2013 94.8844 20.6437 95 20.0233 95ZM20.0233 93.7152C20.5767 93.7152 21.0315 93.5717 21.3879 93.2848C21.7484 92.9936 22.0146 92.5889 22.1865 92.0707C22.3626 91.5525 22.4506 90.9486 22.4506 90.2591V90.1049C22.4506 89.424 22.3626 88.8266 22.1865 88.3126C22.0104 87.7987 21.7421 87.3961 21.3816 87.1049C21.0252 86.8137 20.5704 86.6681 20.017 86.6681C19.4888 86.6681 19.0465 86.8137 18.6901 87.1049C18.3338 87.3961 18.0655 87.7987 17.8852 88.3126C17.705 88.8266 17.6148 89.424 17.6148 90.1049V90.2591C17.6148 90.9443 17.705 91.5482 17.8852 92.0707C18.0655 92.5889 18.3338 92.9936 18.6901 93.2848C19.0507 93.5717 19.495 93.7152 20.0233 93.7152Z" fill="white"/>
<path d="M24.8968 94.8651V93.8758L25.8904 93.6831V86.7002L24.8968 86.5075V85.5118H25.8904H28.1605L30.8456 92.2762H30.8833L33.4867 85.5118H36.7881V86.5075L35.7883 86.7002V93.6831L36.7881 93.8758V94.8651H33.21V93.8758L34.2602 93.6831V91.5054L34.2728 87.4133L34.2413 87.4069L31.4053 94.6531H30.2545L27.3367 87.4454L27.3052 87.4518L27.387 91.3961V93.6831L28.4749 93.8758V94.8651H24.8968Z" fill="white"/>
<path d="M39.9638 92.3983L39.1337 91.4218L43.5608 86.6167L43.5796 86.591L42.7684 86.5075V85.5118H46.183V86.5075L45.3215 86.6809L39.9638 92.3983ZM37.6371 94.8651V93.8758L38.6369 93.6831V86.7002L37.6371 86.5075V85.5118H41.19V86.5075L40.2216 86.7002V93.6831L41.19 93.8758V94.8651H37.6371ZM42.9696 94.8651V93.8758L43.7808 93.7923V93.7859L41.3661 90.3812L42.3597 89.2441L45.6359 93.7152L46.51 93.8758V94.8651H42.9696Z" fill="white"/>
<path d="M47.2458 94.8651V93.8758L48.2456 93.6831V86.7002L47.2458 86.5075V85.5118H50.8239V86.5075L49.8303 86.7002V93.6831L50.8239 93.8758V94.8651H47.2458Z" fill="white"/>
<path d="M54.8421 94.8651V93.8758L55.842 93.6831V86.7002L54.8421 86.5075V85.5118H58.4202V86.5075L57.4267 86.7002V93.6831L58.4202 93.8758V94.8651H54.8421Z" fill="white"/>
<path d="M59.2629 94.8651V93.8758L60.2627 93.6831V86.7002L59.2629 86.5075V85.5118H60.2627H61.8663L66.0669 92.3405L66.1047 92.3276V86.7002L64.9476 86.5075V85.5118H67.5321H68.532V86.5075L67.5321 86.7002V94.8651H66.0292L61.7279 88.0621L61.6902 88.0685V93.6831L62.8473 93.8758V94.8651H59.2629ZM62.9164 84.7473L64.1301 83H65.8594L65.872 83.0385L64.1553 84.7473H62.9668H62.9164Z" fill="white"/>
<path d="M72.871 95C72.2463 95 71.6657 94.9208 71.1291 94.7623C70.5925 94.6039 70.0705 94.3405 69.5633 93.9722V91.8201H70.7895L70.9907 93.2141C71.2129 93.3769 71.4854 93.5075 71.8082 93.606C72.1352 93.7045 72.4895 93.7537 72.871 93.7537C73.2441 93.7537 73.5564 93.7002 73.808 93.5931C74.0637 93.4818 74.2586 93.3276 74.3928 93.1306C74.5269 92.9336 74.594 92.7002 74.594 92.4304C74.594 92.182 74.5353 91.9615 74.4179 91.7687C74.3005 91.576 74.1056 91.4047 73.8331 91.2548C73.5606 91.1006 73.1917 90.9593 72.7263 90.8308C72.043 90.6424 71.4708 90.4197 71.0096 90.1627C70.5527 89.9058 70.2068 89.5974 69.972 89.2377C69.7415 88.8779 69.6262 88.454 69.6262 87.9657C69.6262 87.4647 69.7582 87.0214 70.0223 86.636C70.2906 86.2505 70.6617 85.9465 71.1354 85.7238C71.6091 85.5011 72.1562 85.3876 72.7766 85.3833C73.4558 85.3747 74.0553 85.4647 74.5751 85.6531C75.0992 85.8415 75.5415 86.0878 75.902 86.3919V88.4026H74.7009L74.4745 87.0921C74.3026 86.9679 74.0784 86.863 73.8017 86.7773C73.5292 86.6874 73.2064 86.6424 72.8333 86.6424C72.5146 86.6424 72.2338 86.6959 71.9906 86.803C71.7475 86.9101 71.5567 87.0621 71.4184 87.2591C71.28 87.4518 71.2108 87.6831 71.2108 87.9529C71.2108 88.1884 71.2716 88.394 71.3932 88.5696C71.5148 88.7452 71.7181 88.9058 72.0032 89.0514C72.2883 89.1927 72.6739 89.3362 73.1602 89.4818C74.1538 89.7516 74.9063 90.1242 75.4178 90.5996C75.9292 91.0749 76.185 91.6809 76.185 92.4176C76.185 92.9358 76.0466 93.3897 75.7699 93.7794C75.4974 94.1649 75.1117 94.4647 74.6129 94.6788C74.1182 94.8929 73.5376 95 72.871 95Z" fill="white"/>
<path d="M79.3795 92.3983L78.5494 91.4218L82.9764 86.6167L82.9953 86.591L82.1841 86.5075V85.5118H85.5987V86.5075L84.7372 86.6809L79.3795 92.3983ZM77.0528 94.8651V93.8758L78.0526 93.6831V86.7002L77.0528 86.5075V85.5118H80.6057V86.5075L79.6373 86.7002V93.6831L80.6057 93.8758V94.8651H77.0528ZM82.3853 94.8651V93.8758L83.1965 93.7923V93.7859L80.7818 90.3812L81.7754 89.2441L85.0516 93.7152L85.9257 93.8758V94.8651H82.3853Z" fill="white"/>
<path d="M89.988 95C89.3801 95 88.8309 94.8844 88.3404 94.6531C87.8499 94.4176 87.4286 94.0878 87.0765 93.6638C86.7285 93.2398 86.4602 92.7388 86.2716 92.1606C86.0829 91.5824 85.9886 90.9486 85.9886 90.2591V90.1178C85.9886 89.4325 86.0829 88.8009 86.2716 88.2227C86.4602 87.6445 86.7285 87.1435 87.0765 86.7195C87.4286 86.2912 87.8499 85.9615 88.3404 85.7302C88.8309 85.4946 89.378 85.3769 89.9817 85.3769C90.6064 85.3769 91.166 85.4946 91.6607 85.7302C92.1554 85.9615 92.5767 86.2912 92.9247 86.7195C93.2726 87.1435 93.5388 87.6445 93.7233 88.2227C93.9078 88.8009 94 89.4325 94 90.1178V90.2591C94 90.9486 93.9078 91.5824 93.7233 92.1606C93.5388 92.7388 93.2726 93.2398 92.9247 93.6638C92.5767 94.0878 92.1554 94.4176 91.6607 94.6531C91.166 94.8844 90.6085 95 89.988 95ZM89.988 93.7152C90.5414 93.7152 90.9962 93.5717 91.3526 93.2848C91.7131 92.9936 91.9793 92.5889 92.1512 92.0707C92.3273 91.5525 92.4153 90.9486 92.4153 90.2591V90.1049C92.4153 89.424 92.3273 88.8266 92.1512 88.3126C91.9751 87.7987 91.7068 87.3961 91.3463 87.1049C90.99 86.8137 90.5351 86.6681 89.9817 86.6681C89.4535 86.6681 89.0112 86.8137 88.6549 87.1049C88.2985 87.3961 88.0302 87.7987 87.8499 88.3126C87.6697 88.8266 87.5795 89.424 87.5795 90.1049V90.2591C87.5795 90.9443 87.6697 91.5482 87.8499 92.0707C88.0302 92.5889 88.2985 92.9936 88.6549 93.2848C89.0154 93.5717 89.4598 93.7152 89.988 93.7152Z" fill="white"/>
<path d="M19.9637 15.3342C14.5766 21.6602 11.6291 29.7041 11.6536 38.013C11.5884 45.7744 14.1583 53.3284 18.9431 59.4398C23.7279 65.5513 30.4446 69.8586 37.9949 71.6577" stroke="white" stroke-width="2" stroke-linecap="round" stroke-linejoin="round"/>
<path d="M24.8549 67.1543C27.5226 67.4193 29.9965 68.6669 31.7956 70.6545C31.8719 70.7366 31.9144 70.8446 31.9144 70.9567C31.9144 71.0688 31.8719 71.1768 31.7956 71.2589C30.9667 72.3216 29.9043 73.1791 28.6906 73.7652C27.477 74.3512 26.1447 74.6499 24.797 74.6382C23.4494 74.6266 22.1225 74.3048 20.9192 73.6978C19.7159 73.0908 18.6685 72.2149 17.8582 71.138C17.7817 71.0556 17.7393 70.9473 17.7393 70.8349C17.7393 70.7225 17.7817 70.6142 17.8582 70.5318C19.69 68.5761 22.1841 67.3721 24.8549 67.1543Z" stroke="white" stroke-width="2" stroke-linecap="round" stroke-linejoin="round"/>
<path d="M12.9526 54.5972C15.3693 55.8012 17.2613 57.8486 18.2714 60.3526C18.3153 60.4559 18.3181 60.572 18.2792 60.6774C18.2403 60.7827 18.1626 60.8691 18.062 60.9191C15.6682 62.1022 12.9172 62.3424 10.3545 61.592C7.93825 60.3875 6.04635 58.3402 5.03576 55.8366C4.99241 55.7331 4.99006 55.6169 5.02926 55.5116C5.06847 55.4064 5.1463 55.3201 5.24686 55.2701C7.64018 54.0875 10.3905 53.8473 12.9526 54.5972Z" stroke="white" stroke-width="2" stroke-linecap="round" stroke-linejoin="round"/>
<path d="M8.94174 38.1068C10.9294 39.9555 12.1821 42.4601 12.469 45.1594C12.4831 45.271 12.4533 45.3838 12.3861 45.4739C12.3188 45.5641 12.2191 45.6247 12.1081 45.6429C9.47456 46.0874 6.77008 45.5266 4.53047 44.0715C2.54283 42.222 1.29019 39.7168 1.00323 37.017C0.989592 36.9055 1.01949 36.793 1.0867 36.7029C1.15391 36.6129 1.25328 36.5522 1.36409 36.5335C3.99787 36.0899 6.70224 36.6514 8.94174 38.1068Z" stroke="white" stroke-width="2" stroke-linecap="round" stroke-linejoin="round"/>
<path d="M12.3283 21.2592C13.3338 23.7941 13.3977 26.6053 12.5087 29.1833C12.4743 29.2889 12.3999 29.3769 12.3014 29.4285C12.203 29.4801 12.0883 29.4911 11.9819 29.4593C9.40697 28.6775 7.21191 26.9714 5.81871 24.6692C4.81326 22.1343 4.7493 19.3231 5.63833 16.7451C5.67276 16.6395 5.74714 16.5514 5.84558 16.4999C5.94401 16.4483 6.05867 16.4372 6.16514 16.4691C8.74005 17.2509 10.9351 18.957 12.3283 21.2592Z" stroke="white" stroke-width="2" stroke-linecap="round" stroke-linejoin="round"/>
<path d="M26.4713 9.14222C25.3429 11.5934 23.3521 13.5437 20.8783 14.6216C20.7765 14.6661 20.6613 14.6687 20.5576 14.6288C20.4539 14.589 20.3701 14.5099 20.3244 14.4087C19.1556 11.9455 18.9085 9.14502 19.628 6.51529C20.7555 4.06351 22.7465 2.11293 25.221 1.03596C25.3227 0.990959 25.438 0.988075 25.5418 1.02798C25.6457 1.06788 25.7295 1.14731 25.7749 1.24885C26.9447 3.71168 27.1918 6.51259 26.4713 9.14222Z" stroke="white" stroke-width="2" stroke-linecap="round" stroke-linejoin="round"/>
<path d="M80.3176 15.3342C85.7047 21.6602 88.6521 29.7041 88.6276 38.013C88.6928 45.7744 86.123 53.3284 81.3382 59.4398C76.5533 65.5513 69.8367 69.8586 62.2864 71.6577" stroke="white" stroke-width="2" stroke-linecap="round" stroke-linejoin="round"/>
<path d="M75.4264 67.1543C72.7586 67.4193 70.2847 68.6669 68.4857 70.6545C68.4093 70.7366 68.3669 70.8446 68.3669 70.9567C68.3669 71.0688 68.4093 71.1768 68.4857 71.2589C69.3145 72.3216 70.3771 73.1791 71.5907 73.7652C72.8043 74.3512 74.1365 74.6499 75.4842 74.6382C76.8319 74.6266 78.1588 74.3048 79.362 73.6978C80.5653 73.0908 81.6128 72.2149 82.4231 71.138C82.5 71.0558 82.5427 70.9475 82.5427 70.8349C82.5427 70.7224 82.5 70.614 82.4231 70.5318C80.5919 68.5753 78.0974 67.3712 75.4264 67.1543Z" stroke="white" stroke-width="2" stroke-linecap="round" stroke-linejoin="round"/>
<path d="M87.3269 54.5972C84.911 55.8018 83.0198 57.8491 82.01 60.3525C81.966 60.4559 81.9632 60.572 82.0021 60.6773C82.041 60.7827 82.1186 60.8691 82.2192 60.9191C84.613 62.1022 87.3641 62.3424 89.9268 61.592C92.3431 60.3875 94.235 58.3402 95.2455 55.8366C95.2889 55.7331 95.2911 55.6169 95.2519 55.5116C95.2127 55.4064 95.135 55.3201 95.0344 55.2701C92.6406 54.087 89.8895 53.8468 87.3269 54.5972Z" stroke="white" stroke-width="2" stroke-linecap="round" stroke-linejoin="round"/>
<path d="M91.336 38.1068C89.3483 39.9555 88.0956 42.4601 87.8087 45.1594C87.7946 45.271 87.8244 45.3838 87.8916 45.4739C87.9589 45.5641 88.0586 45.6247 88.1696 45.6429C90.8032 46.0883 93.5079 45.5274 95.7471 44.0715C97.7349 42.2221 98.9876 39.7169 99.2744 37.017C99.288 36.9055 99.2581 36.793 99.1909 36.7029C99.1237 36.6129 99.0243 36.5522 98.9135 36.5335C96.2797 36.0899 93.5755 36.6514 91.336 38.1068Z" stroke="white" stroke-width="2" stroke-linecap="round" stroke-linejoin="round"/>
<path d="M87.9529 21.2592C86.9475 23.7941 86.8834 26.6053 87.7724 29.1833C87.8069 29.2889 87.8812 29.3769 87.9797 29.4285C88.0781 29.4801 88.1928 29.4911 88.2992 29.4593C90.8742 28.6775 93.0692 26.9714 94.4624 24.6692C95.4679 22.1343 95.5318 19.3231 94.6428 16.7451C94.6084 16.6395 94.5341 16.5514 94.4357 16.4999C94.3372 16.4483 94.2225 16.4372 94.116 16.4691C91.5408 17.2503 89.3456 18.9565 87.9529 21.2592Z" stroke="white" stroke-width="2" stroke-linecap="round" stroke-linejoin="round"/>
<path d="M73.81 9.14222C74.9384 11.5934 76.9293 13.5437 79.4031 14.6216C79.5049 14.6661 79.6201 14.6687 79.7238 14.6288C79.8275 14.589 79.9113 14.5099 79.957 14.4087C81.1258 11.9455 81.3728 9.14502 80.6534 6.51529C79.5257 4.06361 77.5347 2.11307 75.0604 1.03596C74.9587 0.990959 74.8432 0.988075 74.7394 1.02798C74.6356 1.06788 74.5519 1.14731 74.5065 1.24885C73.3368 3.71173 73.0896 6.51258 73.81 9.14222Z" stroke="white" stroke-width="2" stroke-linecap="round" stroke-linejoin="round"/>
<path d="M50.4491 17.1528L32.714 35.442C32.5335 35.6224 32.8384 35.8678 32.8384 36.124V54.801C32.8384 55.3423 32.4631 56.5096 32.9972 56.5096H68.2873C68.8285 56.5096 68.9223 55.3351 68.9223 54.801V36.124C68.9223 35.8678 68.9874 35.6242 68.8069 35.442L50.7523 17.1528C50.3806 16.7721 50.8262 16.7721 50.4491 17.1528Z" stroke="white" stroke-width="2" stroke-linecap="round" stroke-linejoin="round"/>
<path d="M55.3061 42.076H46.4547C45.9096 42.076 45.4678 42.5178 45.4678 43.0629V53.7185C45.4678 54.2635 45.9096 54.7054 46.4547 54.7054H55.3061C55.8511 54.7054 56.293 54.2635 56.293 53.7185V43.0629C56.293 42.5178 55.8511 42.076 55.3061 42.076Z" stroke="white" stroke-width="2" stroke-linecap="round" stroke-linejoin="round"/>
<path d="M27.7812 39.4094L50.4492 17.1528" stroke="white" stroke-width="2" stroke-linecap="round" stroke-linejoin="round"/>
<path d="M73.2306 39.4094L50.5626 17.1528" stroke="white" stroke-width="2" stroke-linecap="round" stroke-linejoin="round"/>
</svg>
