<svg width="102" height="96" viewBox="0 0 102 96" fill="none" xmlns="http://www.w3.org/2000/svg">
<path d="M8 95.8651V94.8758L9.00614 94.6767V87.7131L8 87.5075V86.5118H9.00614H11.8359C12.6534 86.5118 13.3682 86.7088 13.9803 87.1028C14.5965 87.4968 15.0765 88.0385 15.4203 88.7281C15.7641 89.4176 15.936 90.2077 15.936 91.0985V91.2848C15.936 92.1627 15.7683 92.9486 15.4329 93.6424C15.0975 94.3319 14.6238 94.8758 14.0117 95.2741C13.4038 95.6681 12.6932 95.8651 11.8799 95.8651H8ZM10.5908 94.6188H11.7982C12.3348 94.6188 12.7918 94.4732 13.1691 94.182C13.5506 93.8865 13.8419 93.4882 14.0432 92.9872C14.2444 92.4818 14.345 91.9143 14.345 91.2848V91.0921C14.345 90.4454 14.2444 89.8737 14.0432 89.3769C13.8419 88.8758 13.5506 88.4818 13.1691 88.1949C12.7918 87.9079 12.3348 87.7645 11.7982 87.7645H10.5908V94.6188Z" fill="#89023E"/>
<path d="M21.0233 96C20.4154 96 19.8662 95.8844 19.3757 95.6531C18.8852 95.4176 18.4639 95.0878 18.1117 94.6638C17.7638 94.2398 17.4955 93.7388 17.3068 93.1606C17.1182 92.5824 17.0239 91.9486 17.0239 91.2591V91.1178C17.0239 90.4325 17.1182 89.8009 17.3068 89.2227C17.4955 88.6445 17.7638 88.1435 18.1117 87.7195C18.4639 87.2912 18.8852 86.9615 19.3757 86.7302C19.8662 86.4946 20.4133 86.3769 21.017 86.3769C21.6416 86.3769 22.2013 86.4946 22.696 86.7302C23.1907 86.9615 23.612 87.2912 23.96 87.7195C24.3079 88.1435 24.5741 88.6445 24.7586 89.2227C24.943 89.8009 25.0353 90.4325 25.0353 91.1178V91.2591C25.0353 91.9486 24.943 92.5824 24.7586 93.1606C24.5741 93.7388 24.3079 94.2398 23.96 94.6638C23.612 95.0878 23.1907 95.4176 22.696 95.6531C22.2013 95.8844 21.6437 96 21.0233 96ZM21.0233 94.7152C21.5767 94.7152 22.0315 94.5717 22.3879 94.2848C22.7484 93.9936 23.0146 93.5889 23.1865 93.0707C23.3626 92.5525 23.4506 91.9486 23.4506 91.2591V91.1049C23.4506 90.424 23.3626 89.8266 23.1865 89.3126C23.0104 88.7987 22.7421 88.3961 22.3816 88.1049C22.0252 87.8137 21.5704 87.6681 21.017 87.6681C20.4888 87.6681 20.0465 87.8137 19.6901 88.1049C19.3338 88.3961 19.0655 88.7987 18.8852 89.3126C18.705 89.8266 18.6148 90.424 18.6148 91.1049V91.2591C18.6148 91.9443 18.705 92.5482 18.8852 93.0707C19.0655 93.5889 19.3338 93.9936 19.6901 94.2848C20.0507 94.5717 20.495 94.7152 21.0233 94.7152Z" fill="#89023E"/>
<path d="M25.8968 95.8651V94.8758L26.8904 94.6831V87.7002L25.8968 87.5075V86.5118H26.8904H29.1605L31.8456 93.2762H31.8833L34.4867 86.5118H37.7881V87.5075L36.7883 87.7002V94.6831L37.7881 94.8758V95.8651H34.21V94.8758L35.2602 94.6831V92.5054L35.2728 88.4133L35.2413 88.4069L32.4053 95.6531H31.2545L28.3367 88.4454L28.3052 88.4518L28.387 92.3961V94.6831L29.4749 94.8758V95.8651H25.8968Z" fill="#89023E"/>
<path d="M40.9638 93.3983L40.1337 92.4218L44.5608 87.6167L44.5796 87.591L43.7684 87.5075V86.5118H47.183V87.5075L46.3215 87.6809L40.9638 93.3983ZM38.6371 95.8651V94.8758L39.6369 94.6831V87.7002L38.6371 87.5075V86.5118H42.19V87.5075L41.2216 87.7002V94.6831L42.19 94.8758V95.8651H38.6371ZM43.9696 95.8651V94.8758L44.7808 94.7923V94.7859L42.3661 91.3812L43.3597 90.2441L46.6359 94.7152L47.51 94.8758V95.8651H43.9696Z" fill="#89023E"/>
<path d="M48.2458 95.8651V94.8758L49.2456 94.6831V87.7002L48.2458 87.5075V86.5118H51.8239V87.5075L50.8303 87.7002V94.6831L51.8239 94.8758V95.8651H48.2458Z" fill="#89023E"/>
<path d="M55.8421 95.8651V94.8758L56.842 94.6831V87.7002L55.8421 87.5075V86.5118H59.4202V87.5075L58.4267 87.7002V94.6831L59.4202 94.8758V95.8651H55.8421Z" fill="#89023E"/>
<path d="M60.2629 95.8651V94.8758L61.2627 94.6831V87.7002L60.2629 87.5075V86.5118H61.2627H62.8663L67.0669 93.3405L67.1047 93.3276V87.7002L65.9476 87.5075V86.5118H68.5321H69.532V87.5075L68.5321 87.7002V95.8651H67.0292L62.7279 89.0621L62.6902 89.0685V94.6831L63.8473 94.8758V95.8651H60.2629ZM63.9164 85.7473L65.1301 84H66.8594L66.872 84.0385L65.1553 85.7473H63.9668H63.9164Z" fill="#89023E"/>
<path d="M73.871 96C73.2463 96 72.6657 95.9208 72.1291 95.7623C71.5925 95.6039 71.0705 95.3405 70.5633 94.9722V92.8201H71.7895L71.9907 94.2141C72.2129 94.3769 72.4854 94.5075 72.8082 94.606C73.1352 94.7045 73.4895 94.7537 73.871 94.7537C74.2441 94.7537 74.5564 94.7002 74.808 94.5931C75.0637 94.4818 75.2586 94.3276 75.3928 94.1306C75.5269 93.9336 75.594 93.7002 75.594 93.4304C75.594 93.182 75.5353 92.9615 75.4179 92.7687C75.3005 92.576 75.1056 92.4047 74.8331 92.2548C74.5606 92.1006 74.1917 91.9593 73.7263 91.8308C73.043 91.6424 72.4708 91.4197 72.0096 91.1627C71.5527 90.9058 71.2068 90.5974 70.972 90.2377C70.7415 89.8779 70.6262 89.454 70.6262 88.9657C70.6262 88.4647 70.7582 88.0214 71.0223 87.636C71.2906 87.2505 71.6617 86.9465 72.1354 86.7238C72.6091 86.5011 73.1562 86.3876 73.7767 86.3833C74.4558 86.3747 75.0553 86.4647 75.5751 86.6531C76.0992 86.8415 76.5415 87.0878 76.902 87.3919V89.4026H75.7009L75.4745 88.0921C75.3026 87.9679 75.0784 87.863 74.8017 87.7773C74.5292 87.6874 74.2064 87.6424 73.8332 87.6424C73.5146 87.6424 73.2338 87.6959 72.9906 87.803C72.7475 87.9101 72.5567 88.0621 72.4184 88.2591C72.28 88.4518 72.2108 88.6831 72.2108 88.9529C72.2108 89.1884 72.2716 89.394 72.3932 89.5696C72.5148 89.7452 72.7181 89.9058 73.0032 90.0514C73.2883 90.1927 73.6739 90.3362 74.1602 90.4818C75.1538 90.7516 75.9063 91.1242 76.4178 91.5996C76.9292 92.0749 77.185 92.6809 77.185 93.4176C77.185 93.9358 77.0466 94.3897 76.7699 94.7794C76.4974 95.1649 76.1117 95.4647 75.6129 95.6788C75.1182 95.8929 74.5375 96 73.871 96Z" fill="#89023E"/>
<path d="M80.3795 93.3983L79.5494 92.4218L83.9764 87.6167L83.9953 87.591L83.1841 87.5075V86.5118H86.5987V87.5075L85.7372 87.6809L80.3795 93.3983ZM78.0528 95.8651V94.8758L79.0526 94.6831V87.7002L78.0528 87.5075V86.5118H81.6057V87.5075L80.6373 87.7002V94.6831L81.6057 94.8758V95.8651H78.0528ZM83.3853 95.8651V94.8758L84.1965 94.7923V94.7859L81.7818 91.3812L82.7754 90.2441L86.0516 94.7152L86.9257 94.8758V95.8651H83.3853Z" fill="#89023E"/>
<path d="M90.988 96C90.3801 96 89.8309 95.8844 89.3404 95.6531C88.8499 95.4176 88.4286 95.0878 88.0765 94.6638C87.7285 94.2398 87.4602 93.7388 87.2716 93.1606C87.0829 92.5824 86.9886 91.9486 86.9886 91.2591V91.1178C86.9886 90.4325 87.0829 89.8009 87.2716 89.2227C87.4602 88.6445 87.7285 88.1435 88.0765 87.7195C88.4286 87.2912 88.8499 86.9615 89.3404 86.7302C89.8309 86.4946 90.378 86.3769 90.9817 86.3769C91.6064 86.3769 92.166 86.4946 92.6607 86.7302C93.1554 86.9615 93.5767 87.2912 93.9247 87.7195C94.2726 88.1435 94.5388 88.6445 94.7233 89.2227C94.9078 89.8009 95 90.4325 95 91.1178V91.2591C95 91.9486 94.9078 92.5824 94.7233 93.1606C94.5388 93.7388 94.2726 94.2398 93.9247 94.6638C93.5767 95.0878 93.1554 95.4176 92.6607 95.6531C92.166 95.8844 91.6085 96 90.988 96ZM90.988 94.7152C91.5414 94.7152 91.9962 94.5717 92.3526 94.2848C92.7131 93.9936 92.9793 93.5889 93.1512 93.0707C93.3273 92.5525 93.4153 91.9486 93.4153 91.2591V91.1049C93.4153 90.424 93.3273 89.8266 93.1512 89.3126C92.9751 88.7987 92.7068 88.3961 92.3463 88.1049C91.99 87.8137 91.5351 87.6681 90.9817 87.6681C90.4535 87.6681 90.0112 87.8137 89.6549 88.1049C89.2985 88.3961 89.0302 88.7987 88.8499 89.3126C88.6697 89.8266 88.5795 90.424 88.5795 91.1049V91.2591C88.5795 91.9443 88.6697 92.5482 88.8499 93.0707C89.0302 93.5889 89.2985 93.9936 89.6549 94.2848C90.0154 94.5717 90.4598 94.7152 90.988 94.7152Z" fill="#89023E"/>
<path d="M20.9637 16.3342C15.5766 22.6602 12.6291 30.7041 12.6536 39.013C12.5884 46.7744 15.1583 54.3284 19.9431 60.4398C24.7279 66.5513 31.4446 70.8586 38.9949 72.6577" stroke="#89023E" stroke-width="2.2" stroke-linecap="round" stroke-linejoin="round"/>
<path d="M25.8549 68.1543C28.5226 68.4193 30.9965 69.6669 32.7956 71.6545C32.8719 71.7366 32.9144 71.8446 32.9144 71.9567C32.9144 72.0688 32.8719 72.1768 32.7956 72.2589C31.9667 73.3216 30.9043 74.1791 29.6906 74.7652C28.477 75.3512 27.1447 75.6499 25.797 75.6382C24.4494 75.6266 23.1225 75.3048 21.9192 74.6978C20.7159 74.0908 19.6685 73.2149 18.8582 72.138C18.7817 72.0556 18.7393 71.9473 18.7393 71.8349C18.7393 71.7225 18.7817 71.6142 18.8582 71.5318C20.69 69.5761 23.1841 68.3721 25.8549 68.1543Z" stroke="#89023E" stroke-width="2.2" stroke-linecap="round" stroke-linejoin="round"/>
<path d="M13.9526 55.5972C16.3693 56.8012 18.2613 58.8486 19.2714 61.3526C19.3153 61.4559 19.3181 61.572 19.2792 61.6774C19.2403 61.7827 19.1626 61.8691 19.062 61.9191C16.6682 63.1022 13.9172 63.3424 11.3545 62.592C8.93825 61.3875 7.04635 59.3402 6.03576 56.8366C5.99241 56.7331 5.99006 56.6169 6.02926 56.5116C6.06847 56.4064 6.1463 56.3201 6.24686 56.2701C8.64018 55.0875 11.3905 54.8473 13.9526 55.5972Z" stroke="#89023E" stroke-width="2.2" stroke-linecap="round" stroke-linejoin="round"/>
<path d="M9.94174 39.1068C11.9294 40.9555 13.1821 43.4601 13.469 46.1594C13.4831 46.271 13.4533 46.3838 13.3861 46.4739C13.3188 46.5641 13.2191 46.6247 13.1081 46.6429C10.4746 47.0874 7.77008 46.5266 5.53047 45.0715C3.54283 43.222 2.29019 40.7168 2.00323 38.017C1.98959 37.9055 2.01949 37.793 2.0867 37.7029C2.15391 37.6129 2.25328 37.5522 2.36409 37.5335C4.99787 37.0899 7.70224 37.6514 9.94174 39.1068Z" stroke="#89023E" stroke-width="2.2" stroke-linecap="round" stroke-linejoin="round"/>
<path d="M13.3283 22.2592C14.3338 24.7941 14.3977 27.6053 13.5087 30.1833C13.4743 30.2889 13.3999 30.3769 13.3014 30.4285C13.203 30.4801 13.0883 30.4911 12.9819 30.4593C10.407 29.6775 8.21191 27.9714 6.81871 25.6692C5.81326 23.1343 5.7493 20.3231 6.63833 17.7451C6.67276 17.6395 6.74714 17.5514 6.84558 17.4999C6.94401 17.4483 7.05867 17.4372 7.16514 17.4691C9.74005 18.2509 11.9351 19.957 13.3283 22.2592Z" stroke="#89023E" stroke-width="2.2" stroke-linecap="round" stroke-linejoin="round"/>
<path d="M27.4713 10.1422C26.3429 12.5934 24.3521 14.5437 21.8783 15.6216C21.7765 15.6661 21.6613 15.6687 21.5576 15.6288C21.4539 15.589 21.3701 15.5099 21.3244 15.4087C20.1556 12.9455 19.9085 10.145 20.628 7.51529C21.7555 5.06351 23.7465 3.11293 26.221 2.03596C26.3227 1.99096 26.438 1.98808 26.5418 2.02798C26.6457 2.06788 26.7295 2.14731 26.7749 2.24885C27.9447 4.71168 28.1918 7.51259 27.4713 10.1422Z" stroke="#89023E" stroke-width="2.2" stroke-linecap="round" stroke-linejoin="round"/>
<path d="M81.3176 16.3342C86.7047 22.6602 89.6521 30.7041 89.6276 39.013C89.6928 46.7744 87.123 54.3284 82.3382 60.4398C77.5533 66.5513 70.8367 70.8586 63.2864 72.6577" stroke="#89023E" stroke-width="2.2" stroke-linecap="round" stroke-linejoin="round"/>
<path d="M76.4264 68.1543C73.7586 68.4193 71.2847 69.6669 69.4857 71.6545C69.4093 71.7366 69.3669 71.8446 69.3669 71.9567C69.3669 72.0688 69.4093 72.1768 69.4857 72.2589C70.3145 73.3216 71.3771 74.1791 72.5907 74.7652C73.8043 75.3512 75.1365 75.6499 76.4842 75.6382C77.8319 75.6266 79.1588 75.3048 80.362 74.6978C81.5653 74.0908 82.6128 73.2149 83.4231 72.138C83.5 72.0558 83.5427 71.9475 83.5427 71.8349C83.5427 71.7224 83.5 71.614 83.4231 71.5318C81.5919 69.5753 79.0974 68.3712 76.4264 68.1543Z" stroke="#89023E" stroke-width="2.2" stroke-linecap="round" stroke-linejoin="round"/>
<path d="M88.3269 55.5972C85.911 56.8018 84.0198 58.8491 83.01 61.3525C82.966 61.4559 82.9632 61.572 83.0021 61.6773C83.041 61.7827 83.1186 61.8691 83.2192 61.9191C85.613 63.1022 88.3641 63.3424 90.9268 62.592C93.3431 61.3875 95.235 59.3402 96.2455 56.8366C96.2889 56.7331 96.2911 56.6169 96.2519 56.5116C96.2127 56.4064 96.135 56.3201 96.0344 56.2701C93.6406 55.087 90.8895 54.8468 88.3269 55.5972Z" stroke="#89023E" stroke-width="2.2" stroke-linecap="round" stroke-linejoin="round"/>
<path d="M92.336 39.1068C90.3483 40.9555 89.0956 43.4601 88.8087 46.1594C88.7946 46.271 88.8244 46.3838 88.8916 46.4739C88.9589 46.5641 89.0586 46.6247 89.1696 46.6429C91.8032 47.0883 94.5079 46.5274 96.7471 45.0715C98.7349 43.2221 99.9876 40.7169 100.274 38.017C100.288 37.9055 100.258 37.793 100.191 37.7029C100.124 37.6129 100.024 37.5522 99.9135 37.5335C97.2797 37.0899 94.5755 37.6514 92.336 39.1068Z" stroke="#89023E" stroke-width="2.2" stroke-linecap="round" stroke-linejoin="round"/>
<path d="M88.9529 22.2592C87.9475 24.7941 87.8834 27.6053 88.7724 30.1833C88.8069 30.2889 88.8812 30.3769 88.9797 30.4285C89.0781 30.4801 89.1928 30.4911 89.2992 30.4593C91.8742 29.6775 94.0692 27.9714 95.4624 25.6692C96.4679 23.1343 96.5318 20.3231 95.6428 17.7451C95.6084 17.6395 95.5341 17.5514 95.4357 17.4999C95.3372 17.4483 95.2225 17.4372 95.116 17.4691C92.5408 18.2503 90.3456 19.9565 88.9529 22.2592Z" stroke="#89023E" stroke-width="2.2" stroke-linecap="round" stroke-linejoin="round"/>
<path d="M74.81 10.1422C75.9384 12.5934 77.9293 14.5437 80.4031 15.6216C80.5049 15.6661 80.6201 15.6687 80.7238 15.6288C80.8275 15.589 80.9113 15.5099 80.957 15.4087C82.1258 12.9455 82.3728 10.145 81.6534 7.51529C80.5257 5.06361 78.5347 3.11307 76.0604 2.03596C75.9587 1.99096 75.8432 1.98808 75.7394 2.02798C75.6356 2.06788 75.5519 2.14731 75.5065 2.24885C74.3368 4.71173 74.0896 7.51258 74.81 10.1422Z" stroke="#89023E" stroke-width="2.2" stroke-linecap="round" stroke-linejoin="round"/>
<path d="M51.4491 18.1528L33.714 36.442C33.5335 36.6224 33.8384 36.8678 33.8384 37.124V55.801C33.8384 56.3423 33.4631 57.5096 33.9972 57.5096H69.2873C69.8285 57.5096 69.9223 56.3351 69.9223 55.801V37.124C69.9223 36.8678 69.9874 36.6242 69.8069 36.442L51.7523 18.1528C51.3806 17.7721 51.8262 17.7721 51.4491 18.1528Z" stroke="#89023E" stroke-width="2.2" stroke-linecap="round" stroke-linejoin="round"/>
<path d="M56.3061 43.076H47.4547C46.9096 43.076 46.4678 43.5178 46.4678 44.0629V54.7185C46.4678 55.2635 46.9096 55.7054 47.4547 55.7054H56.3061C56.8511 55.7054 57.293 55.2635 57.293 54.7185V44.0629C57.293 43.5178 56.8511 43.076 56.3061 43.076Z" stroke="#89023E" stroke-width="2.2" stroke-linecap="round" stroke-linejoin="round"/>
<path d="M28.7812 40.4094L51.4492 18.1528" stroke="#89023E" stroke-width="2.2" stroke-linecap="round" stroke-linejoin="round"/>
<path d="M74.2306 40.4094L51.5626 18.1528" stroke="#89023E" stroke-width="2.2" stroke-linecap="round" stroke-linejoin="round"/>
</svg>
