<svg width="262" height="313" viewBox="0 0 262 313" fill="none" xmlns="http://www.w3.org/2000/svg">
<path d="M186.709 210.969C181.591 210.661 169.287 211.39 156.965 213.731C149.837 206.517 143.665 197.428 139.086 189.933C153.759 147.745 144.466 135.753 131.958 135.753C122.136 135.753 117.231 146.119 118.323 157.572C118.875 163.337 123.757 175.451 129.767 186.958C126.08 196.654 119.501 213.043 112.97 224.903C105.325 227.226 98.7684 229.808 94.0628 231.985C70.6231 242.886 68.7395 257.441 73.617 263.608C82.8777 275.324 102.609 265.216 122.407 229.808C135.962 225.953 153.795 220.818 155.403 220.818C155.588 220.818 155.842 220.877 156.136 220.972C166.017 229.685 177.688 239.662 187.293 240.975C201.191 242.886 209.103 232.806 208.554 226.538C208.011 220.266 204.347 212.028 186.709 210.969ZM98.9677 249.162C93.2389 255.974 83.9733 262.507 80.7034 260.334C77.4292 258.156 76.8857 251.888 84.2494 244.797C91.6082 237.714 103.926 234.037 105.778 233.349C107.966 232.534 108.509 233.349 108.509 234.44C108.509 235.531 104.692 242.342 98.9677 249.162ZM124.051 157.567C123.503 150.747 124.861 144.208 130.59 143.393C136.31 142.569 139.041 149.113 136.862 159.741C134.679 170.384 133.583 177.462 132.496 178.291C131.405 179.106 130.323 176.375 130.323 176.375C128.136 172.009 124.594 164.378 124.051 157.567ZM126.234 221.628C129.227 216.714 136.862 196.826 136.862 196.826C138.497 199.827 151.304 215.08 151.304 215.08C151.304 215.08 131.677 219.451 126.234 221.628ZM185.644 230.341C177.47 229.264 163.572 219.437 163.572 219.437C161.666 218.622 178.802 216.294 185.382 216.715C193.837 217.264 196.834 220.809 196.834 224.351C196.834 227.896 193.837 231.433 185.644 230.341Z" fill="white"/>
<path d="M255.928 65.6055L196.002 5.67452L190.327 0H182.293H60.0803C31.2245 0 7.74884 23.4805 7.74884 52.3461V56.3497H0V118.953H7.74884V259.66C7.74884 288.521 31.2251 312.002 60.0809 312.002H209.261C238.126 312.002 261.602 288.521 261.602 259.66V79.3134V71.2843L255.928 65.6055ZM209.261 292.618H60.0803C41.8752 292.618 27.1215 277.864 27.1215 259.66V118.952H122.983V56.3491H27.1215V52.3455C27.1215 34.1361 41.8752 19.377 60.0803 19.377H177.656V56.4844C177.656 71.6505 189.96 83.9459 205.126 83.9459H242.229V259.659C242.229 277.865 227.47 292.618 209.261 292.618ZM28.4804 101.209V72.2306C28.4804 71.7194 28.8966 71.302 29.4091 71.302H38.6156C40.1329 71.302 41.5321 71.5512 42.7819 72.0405C44.0183 72.525 45.1049 73.2044 46.011 74.0649C46.9257 74.9296 47.6277 75.9808 48.103 77.1855C48.5783 78.3671 48.8233 79.6583 48.8233 81.0209C48.8233 82.4115 48.5783 83.7107 48.0981 84.8795C47.6228 86.0483 46.9208 87.0848 46.0153 87.9593C45.114 88.8289 44.0226 89.5126 42.7728 89.9879C41.5321 90.4632 40.1329 90.7033 38.6156 90.7033H34.7302V101.21C34.7302 101.721 34.314 102.138 33.8021 102.138H29.4097C28.8966 102.138 28.4804 101.721 28.4804 101.209ZM56.8744 101.209V72.2306C56.8744 71.7194 57.2912 71.302 57.803 71.302H67.9784C69.912 71.302 71.6152 71.6237 73.0509 72.2575C74.5048 72.9046 75.804 73.9332 76.9186 75.3098C77.4938 76.0344 77.9509 76.8357 78.2812 77.6962C78.6029 78.534 78.8473 79.4402 79.0057 80.3817C79.1599 81.3146 79.2501 82.3201 79.2817 83.4024C79.3092 84.4346 79.3226 85.5443 79.3226 86.7216C79.3226 87.8941 79.3092 89.0044 79.2817 90.0366C79.2501 91.1146 79.1599 92.1244 79.0057 93.0616C78.8473 94.0037 78.6029 94.905 78.2812 95.7422C77.946 96.6118 77.489 97.4138 76.9222 98.1243C75.7998 99.5149 74.4994 100.543 73.0503 101.181C71.628 101.815 69.9211 102.136 67.9778 102.136H57.8024C57.2906 102.138 56.8744 101.721 56.8744 101.209ZM105.371 84.0824C105.883 84.0824 106.299 84.4992 106.299 85.0111V88.9599C106.299 89.4717 105.883 89.8886 105.371 89.8886H94.2535V101.21C94.2535 101.722 93.8367 102.138 93.3248 102.138H88.9318C88.42 102.138 88.0038 101.722 88.0038 101.21V72.2319C88.0038 71.7206 88.42 71.3032 88.9318 71.3032H105.783C106.294 71.3032 106.712 71.72 106.712 72.2319V76.1806C106.712 76.6925 106.295 77.1093 105.783 77.1093H94.2535V84.083L105.371 84.0824Z" fill="white"/>
<path d="M41.4771 83.9148C42.2157 83.2494 42.5728 82.303 42.5728 81.0209C42.5728 79.7436 42.2151 78.7973 41.4771 78.1318C40.7075 77.4433 39.6929 77.1081 38.3705 77.1081H34.7295V84.9374H38.3705C39.6923 84.938 40.7075 84.6034 41.4771 83.9148Z" fill="white"/>
<path d="M69.9483 95.9653C70.6369 95.7069 71.2298 95.2907 71.76 94.6929C72.3352 94.05 72.6972 93.1262 72.838 91.944C72.9964 90.5985 73.0732 88.8416 73.0732 86.7222C73.0732 84.5985 72.9964 82.8411 72.838 81.5005C72.6972 80.3146 72.3352 79.3908 71.7643 78.7522C71.2347 78.1538 70.6229 77.729 69.9532 77.4792C69.2329 77.2031 68.409 77.0673 67.4901 77.0673H63.1245V96.3723H67.4901C68.4042 96.3729 69.2329 96.237 69.9483 95.9653Z" fill="white"/>
</svg>
