<svg width="46" height="46" viewBox="0 0 46 46" fill="none" xmlns="http://www.w3.org/2000/svg">
<g clip-path="url(#clip0_62_6)">
<path d="M44.3913 29.0664C44.3913 27.697 44.3913 4.23757 44.3913 3.05078C44.3913 2.27418 43.7617 1.64453 42.985 1.64453C42.2084 1.64453 41.5788 2.27418 41.5788 3.05078V4.45703H5.0163V3.05078C5.0163 2.27418 4.38665 1.64453 3.61005 1.64453C2.83344 1.64453 2.2038 2.27418 2.2038 3.05078V29.0664C1.42719 29.0664 0.797546 29.6961 0.797546 30.4727V43.832C0.797546 44.6086 1.42719 45.2383 2.2038 45.2383H7.12567C7.65838 45.2383 8.14529 44.9373 8.38347 44.4609L10.1042 41.0195H36.491L38.2117 44.4609C38.4499 44.9373 38.9368 45.2383 39.4695 45.2383H44.3914C45.1681 45.2383 45.7976 44.6086 45.7976 43.832V30.4727C45.7975 29.6961 45.168 29.0664 44.3913 29.0664ZM41.5788 20.9951C40.5725 20.3202 39.3632 19.9258 38.0632 19.9258H33.1413V17.1133C33.1413 14.0116 30.618 11.4883 27.5163 11.4883H19.0788C15.9771 11.4883 13.4538 14.0116 13.4538 17.1133V19.9258H8.53192C7.23193 19.9258 6.02256 20.3202 5.0163 20.9951V7.26953H41.5788V20.9951ZM30.3288 19.9258H16.2663V17.1133C16.2663 15.5625 17.528 14.3008 19.0788 14.3008H27.5163C29.0671 14.3008 30.3288 15.5625 30.3288 17.1133V19.9258ZM5.0163 26.2539C5.0163 24.3154 6.59341 22.7383 8.53192 22.7383H38.0632C40.0017 22.7383 41.5788 24.3154 41.5788 26.2539V29.0664H5.0163V26.2539ZM42.985 42.4258H40.3386L38.6179 38.9844C38.3797 38.508 37.8927 38.207 37.36 38.207H9.23505C8.70234 38.207 8.21543 38.508 7.97724 38.9844L6.25652 42.4258H3.61005V31.8789H42.985V42.4258Z" fill="#2F2F2F"/>
</g>
<defs>
<clipPath id="clip0_62_6">
<rect width="45" height="45" fill="white" transform="translate(0.797546 0.941406)"/>
</clipPath>
</defs>
</svg>
