<svg width="51" height="51" viewBox="0 0 51 51" fill="none" xmlns="http://www.w3.org/2000/svg">
<g clip-path="url(#clip0_62_2)">
<path d="M49.4068 31.6914C49.4068 30.4121 49.4068 8.32422 49.4068 7.47266C49.4068 6.60977 48.7072 5.91016 47.8443 5.91016C46.9814 5.91016 46.2818 6.60977 46.2818 7.47266V9.03516H5.65683V7.47266C5.65683 6.60977 4.95722 5.91016 4.09433 5.91016C3.23144 5.91016 2.53183 6.60977 2.53183 7.47266V31.6914C1.66894 31.6914 0.96933 32.391 0.96933 33.2539V43.4102C0.96933 44.273 1.66894 44.9727 2.53183 44.9727H6.43808C6.92988 44.9727 7.39296 44.7411 7.68808 44.3477L9.56308 41.8477H42.3756L44.2506 44.3477C44.5456 44.7411 45.0088 44.9727 45.5006 44.9727H49.4068C50.2697 44.9727 50.9693 44.273 50.9693 43.4102V33.2539C50.9693 32.391 50.2697 31.6914 49.4068 31.6914ZM46.2818 24.7197C44.6016 23.7452 43.2743 23.8789 41.5943 23.8789V20.7539C41.5943 18.1692 39.4915 16.0664 36.9068 16.0664H29.0943C27.8947 16.0664 26.7993 16.5199 25.9693 17.2638C25.1393 16.5199 24.0439 16.0664 22.8443 16.0664H15.0318C12.4472 16.0664 10.3443 18.1692 10.3443 20.7539V23.8789C8.58759 23.8789 7.32802 23.7505 5.65683 24.7197V12.1602H46.2818V24.7197ZM13.4693 23.8789V20.7539C13.4693 19.8924 14.1703 19.1914 15.0318 19.1914H22.8443C23.7059 19.1914 24.4068 19.8924 24.4068 20.7539V23.8789H13.4693ZM27.5318 20.7539C27.5318 19.8924 28.2328 19.1914 29.0943 19.1914H36.9068C37.7684 19.1914 38.4693 19.8924 38.4693 20.7539V23.8789H27.5318V20.7539ZM5.65683 30.1289C5.65683 28.4058 7.05869 27.0039 8.78183 27.0039H43.1568C44.88 27.0039 46.2818 28.4058 46.2818 30.1289V31.6914H5.65683V30.1289ZM47.8443 41.8477H46.2818L44.4068 39.3477C44.1118 38.9542 43.6486 38.7227 43.1568 38.7227H8.78183C8.29003 38.7227 7.82695 38.9542 7.53183 39.3477L5.65683 41.8477H4.09433V34.8164H47.8443V41.8477Z" fill="#2F2F2F"/>
</g>
<defs>
<clipPath id="clip0_62_2">
<rect width="50" height="50" fill="white" transform="translate(0.96933 0.441406)"/>
</clipPath>
</defs>
</svg>
