<svg width="51" height="51" viewBox="0 0 51 51" fill="none" xmlns="http://www.w3.org/2000/svg">
<path d="M7.95364 3.44141C7.47708 3.53125 7.13333 3.95313 7.14114 4.44141V31.4414H3.14114C3.10989 31.4414 3.07864 31.4414 3.04739 31.4414C2.53177 31.4883 2.13724 31.9219 2.14114 32.4414V36.4414C2.14114 36.9922 2.59036 37.4414 3.14114 37.4414H6.14114V44.9414C6.14114 46.3086 7.27395 47.4414 8.64114 47.4414C10.0083 47.4414 11.1411 46.3086 11.1411 44.9414V37.4414H39.1411V44.9414C39.1411 46.3086 40.274 47.4414 41.6411 47.4414C43.0083 47.4414 44.1411 46.3086 44.1411 44.9414V37.4414H47.1411C47.6919 37.4414 48.1411 36.9922 48.1411 36.4414V32.4414C48.1411 31.8906 47.6919 31.4414 47.1411 31.4414H44.0161C44.0435 31.3086 44.0435 31.168 44.0161 31.0352L38.9536 9.62891C38.8443 9.11328 38.3521 8.76953 37.8286 8.84766C37.8091 8.85547 37.7857 8.86719 37.7661 8.87891L32.8911 10.0352C32.52 10.1211 32.2271 10.4141 32.1411 10.7852V10.4414C32.1411 9.89062 31.6919 9.44141 31.1411 9.44141H25.1411V4.44141C25.1411 3.89063 24.6919 3.44141 24.1411 3.44141H16.2036C16.1841 3.44141 16.1607 3.44141 16.1411 3.44141H8.14114C8.10989 3.44141 8.07864 3.44141 8.04739 3.44141C8.01614 3.44141 7.98489 3.44141 7.95364 3.44141ZM9.14114 5.44141H15.1411V31.4414H9.14114V5.44141ZM17.1411 5.44141H23.1411V10.3477C23.1411 10.3789 23.1411 10.4102 23.1411 10.4414V31.4414H17.1411V5.44141ZM10.8599 7.44141C10.3091 7.51953 9.92239 8.03125 10.0005 8.58203C10.0786 9.13281 10.5904 9.51953 11.1411 9.44141H13.1411C13.5005 9.44531 13.8365 9.25781 14.02 8.94531C14.1997 8.63281 14.1997 8.25 14.02 7.9375C13.8365 7.625 13.5005 7.4375 13.1411 7.44141H11.1411C11.1099 7.44141 11.0786 7.44141 11.0474 7.44141C11.0161 7.44141 10.9849 7.44141 10.9536 7.44141C10.9224 7.44141 10.8911 7.44141 10.8599 7.44141ZM18.8599 7.44141C18.3091 7.51953 17.9224 8.03125 18.0005 8.58203C18.0786 9.13281 18.5904 9.51953 19.1411 9.44141H21.1411C21.5005 9.44531 21.8365 9.25781 22.02 8.94531C22.1997 8.63281 22.1997 8.25 22.02 7.9375C21.8365 7.625 21.5005 7.4375 21.1411 7.44141H19.1411C19.1099 7.44141 19.0786 7.44141 19.0474 7.44141C19.0161 7.44141 18.9849 7.44141 18.9536 7.44141C18.9224 7.44141 18.8911 7.44141 18.8599 7.44141ZM37.2349 11.0352L37.8599 13.7227C37.649 13.3438 37.2232 13.1445 36.7974 13.2227C36.7661 13.2305 36.7349 13.2422 36.7036 13.2539L35.7349 13.4727C35.3286 13.543 35.0083 13.8516 34.9224 14.2539L34.3286 11.7227L37.2349 11.0352ZM32.1411 11.2227L36.9224 31.4414H32.1411V11.2227ZM25.1411 11.4414H30.1411V31.4414H25.1411V11.4414ZM26.8599 13.4414C26.3091 13.5195 25.9224 14.0312 26.0005 14.582C26.0786 15.1328 26.5904 15.5195 27.1411 15.4414H28.1411C28.5005 15.4453 28.8365 15.2578 29.02 14.9453C29.1997 14.6328 29.1997 14.25 29.02 13.9375C28.8365 13.625 28.5005 13.4375 28.1411 13.4414H27.1411C27.1099 13.4414 27.0786 13.4414 27.0474 13.4414C27.0161 13.4414 26.9849 13.4414 26.9536 13.4414C26.9224 13.4414 26.8911 13.4414 26.8599 13.4414ZM37.9849 14.2852L41.0161 27.1289C40.7935 26.8867 40.4654 26.7734 40.1411 26.8164C40.0865 26.8242 40.0357 26.832 39.9849 26.8477C39.9654 26.8555 39.9419 26.8672 39.9224 26.8789L38.9536 27.0977C38.5474 27.168 38.2271 27.4766 38.1411 27.8789L35.1411 15.1289C35.4068 15.4258 35.8247 15.5352 36.2036 15.4102L37.1724 15.1914C37.6177 15.1055 37.9497 14.7344 37.9849 14.2852ZM10.8599 27.4414C10.3091 27.5195 9.92239 28.0312 10.0005 28.582C10.0786 29.1328 10.5904 29.5195 11.1411 29.4414H13.1411C13.5005 29.4453 13.8365 29.2578 14.02 28.9453C14.1997 28.6328 14.1997 28.25 14.02 27.9375C13.8365 27.625 13.5005 27.4375 13.1411 27.4414H11.1411C11.1099 27.4414 11.0786 27.4414 11.0474 27.4414C11.0161 27.4414 10.9849 27.4414 10.9536 27.4414C10.9224 27.4414 10.8911 27.4414 10.8599 27.4414ZM18.8599 27.4414C18.3091 27.5195 17.9224 28.0312 18.0005 28.582C18.0786 29.1328 18.5904 29.5195 19.1411 29.4414H21.1411C21.5005 29.4453 21.8365 29.2578 22.02 28.9453C22.1997 28.6328 22.1997 28.25 22.02 27.9375C21.8365 27.625 21.5005 27.4375 21.1411 27.4414H19.1411C19.1099 27.4414 19.0786 27.4414 19.0474 27.4414C19.0161 27.4414 18.9849 27.4414 18.9536 27.4414C18.9224 27.4414 18.8911 27.4414 18.8599 27.4414ZM26.8599 27.4414C26.3091 27.5195 25.9224 28.0312 26.0005 28.582C26.0786 29.1328 26.5904 29.5195 27.1411 29.4414H28.1411C28.5005 29.4453 28.8365 29.2578 29.02 28.9453C29.1997 28.6328 29.1997 28.25 29.02 27.9375C28.8365 27.625 28.5005 27.4375 28.1411 27.4414H27.1411C27.1099 27.4414 27.0786 27.4414 27.0474 27.4414C27.0161 27.4414 26.9849 27.4414 26.9536 27.4414C26.9224 27.4414 26.8911 27.4414 26.8599 27.4414ZM41.2349 28.0664L41.8286 30.5039L38.9224 31.1914L38.3599 28.7539C38.6255 29.0508 39.0435 29.1602 39.4224 29.0352L40.3911 28.8164C40.7974 28.7617 41.1333 28.4648 41.2349 28.0664ZM4.14114 33.4414H46.1411V35.4414H4.14114V33.4414ZM8.14114 37.4414H9.14114V44.9414C9.14114 45.2266 8.9263 45.4414 8.64114 45.4414C8.35599 45.4414 8.14114 45.2266 8.14114 44.9414V37.4414ZM41.1411 37.4414H42.1411V44.9414C42.1411 45.2266 41.9263 45.4414 41.6411 45.4414C41.356 45.4414 41.1411 45.2266 41.1411 44.9414V37.4414Z" fill="#2F2F2F"/>
</svg>
