<svg width="51" height="51" viewBox="0 0 51 51" fill="none" xmlns="http://www.w3.org/2000/svg">
<path d="M38.7718 5.98747C39.5652 5.98747 40.2081 6.63037 40.2081 7.42383C40.2081 8.21729 39.5652 8.86019 38.7718 8.86019C37.9783 8.86019 37.3354 8.21729 37.3354 7.42383C37.3354 6.63037 37.9783 5.98747 38.7718 5.98747ZM32.2939 37.1113C32.6601 36.2812 32.8798 35.1501 32.8717 33.9049C32.8595 31.3577 31.8951 29.2948 30.7233 29.2988C29.5514 29.3029 28.6074 31.374 28.6237 33.9212C28.6318 35.1663 28.8637 36.2975 29.2381 37.1276C30.2635 39.0034 31.2807 38.804 32.2939 37.1113ZM17.9222 42.3522C17.9425 42.397 17.9628 42.4417 17.9751 42.4906H20.9373C20.5792 41.5791 20.2863 40.5578 20.0665 39.4591C19.7939 38.0879 19.6434 36.5824 19.6352 35.0076V34.971C19.623 31.7687 20.2171 28.8553 21.1855 26.7313C21.3768 26.3162 21.5802 25.9297 21.7999 25.5716C21.6372 25.4333 21.4703 25.3193 21.2994 25.2339C21.0675 25.1159 20.8315 25.0467 20.5996 25.0386L20.5385 25.0426V25.0386H20.5345C19.5335 25.0426 18.5732 26.0558 17.8286 27.6834C16.9863 29.5348 16.4695 32.1105 16.4817 34.967V34.9954C16.4899 36.4277 16.6282 37.7909 16.8724 39.0278C17.1206 40.2852 17.4827 41.4163 17.9222 42.3522ZM15.8551 42.4906C15.5011 41.5872 15.2081 40.57 14.9884 39.4714C14.7158 38.096 14.5612 36.5905 14.553 35.0076V34.971C14.5408 31.7687 15.1349 28.8553 16.1033 26.7313C17.1694 24.3875 18.7238 22.9308 20.51 22.9227V22.9186H20.5141C20.5507 22.9186 20.5874 22.9186 20.6199 22.9227C21.1367 22.9349 21.6331 23.0692 22.101 23.3092C22.4388 23.4801 22.7643 23.708 23.0776 23.9888C23.8344 23.3092 24.6808 22.9268 25.5922 22.9227V22.9186H25.5963C25.6329 22.9186 25.6696 22.9186 25.7021 22.9227C26.2229 22.939 26.7275 23.0732 27.2036 23.3215C27.5372 23.4923 27.8546 23.7161 28.1598 23.9888C28.9166 23.3092 29.763 22.9268 30.6744 22.9227V22.9186H30.6785C30.7151 22.9186 30.7517 22.9186 30.7884 22.9227C32.5421 22.9715 34.0761 24.4079 35.1463 26.7109C36.135 28.835 36.7576 31.7524 36.7739 34.9588C36.782 36.4969 36.6518 37.9618 36.4117 39.2923C36.2002 40.4601 35.9031 41.5384 35.5369 42.4946H38.7758C38.9711 42.4946 39.1543 42.4132 39.2845 42.283C39.4147 42.1528 39.4961 41.9738 39.4961 41.7744V20.3958C39.4961 20.2005 39.4147 20.0215 39.2845 19.8913C39.1543 19.7611 38.9752 19.6797 38.7799 19.6797H13.0149C12.8196 19.6797 12.6406 19.7611 12.5104 19.8913C12.3802 20.0215 12.2988 20.2005 12.2988 20.3958V41.7703C12.2988 41.9657 12.3802 42.1447 12.5104 42.2749C12.6406 42.4051 12.8196 42.4865 13.0149 42.4865H15.8551V42.4906ZM22.9962 42.3359C23.0206 42.3848 23.041 42.4377 23.0573 42.4906H26.0236C25.6492 41.5465 25.3481 40.4805 25.1284 39.3371C24.872 38.0065 24.7296 36.5457 24.7215 35.0076V34.971C24.7093 31.7687 25.3033 28.8553 26.2718 26.7313C26.4589 26.3162 26.6665 25.9297 26.8862 25.5716C26.7234 25.4333 26.5607 25.3234 26.3938 25.238C26.1578 25.1159 25.9218 25.0467 25.6858 25.0386L25.6248 25.0426V25.0386H25.6207C24.6198 25.0426 23.6595 26.0558 22.9148 27.6834C22.0726 29.5348 21.5558 32.1105 21.568 34.967V34.9954C21.5761 36.4237 21.7145 37.7827 21.9586 39.0156C22.1987 40.277 22.5608 41.4041 22.9962 42.3359ZM28.0092 42.1772C28.054 42.279 28.0825 42.3848 28.0988 42.4906H33.4739C33.4861 42.3766 33.5146 42.2627 33.5634 42.1528C33.9703 41.221 34.2999 40.1102 34.5237 38.8732C34.7434 37.6606 34.8614 36.3423 34.8533 34.971C34.837 32.1024 34.2959 29.5186 33.4332 27.6672C32.6886 26.0721 31.7446 25.0752 30.764 25.0386L30.7029 25.0426V25.0386H30.6989C29.6979 25.0426 28.7376 26.0558 27.993 27.6834C27.1507 29.5348 26.6339 32.1105 26.6461 34.967V34.9954C26.6543 36.3748 26.7845 37.6973 27.0164 38.9098C27.2524 40.1468 27.5942 41.2536 28.0092 42.1772ZM13.0149 17.6899H38.7799C39.5245 17.6899 40.2 17.9951 40.6883 18.4834C41.1766 18.9717 41.4817 19.6512 41.4817 20.3958V41.7703C41.4817 42.5109 41.1766 43.1864 40.6883 43.6746L40.6842 43.6828C40.1959 44.1711 39.5205 44.4762 38.7799 44.4762H13.0149C12.2703 44.4762 11.5948 44.1711 11.1025 43.6828C10.6142 43.1945 10.309 42.519 10.309 41.7744V20.3958C10.309 19.6512 10.6142 18.9757 11.1025 18.4834C11.5908 17.9951 12.2703 17.6899 13.0149 17.6899ZM11.9692 5.98747C12.7627 5.98747 13.4056 6.63037 13.4056 7.42383C13.4056 8.21729 12.7627 8.86019 11.9692 8.86019C11.1757 8.86019 10.5328 8.21729 10.5328 7.42383C10.5328 6.63037 11.1757 5.98747 11.9692 5.98747ZM18.1866 5.84098H33.6041V9.00667H18.1866V5.84098ZM7.17183 12.5142H44.4847V3.02116C44.4847 2.82992 44.4073 2.65902 44.2812 2.53288C44.1551 2.40674 43.9842 2.32943 43.7929 2.32943H7.86357C7.67232 2.32943 7.50142 2.40674 7.37528 2.53288C7.24915 2.65902 7.17183 2.82992 7.17183 3.02116V12.5142ZM46.3686 47.8617C46.3686 48.5697 46.0797 49.2166 45.6118 49.6846C45.1438 50.1525 44.4969 50.4414 43.7889 50.4414H7.86357C7.15556 50.4414 6.50859 50.1525 6.04065 49.6846C5.57271 49.2126 5.28381 48.5697 5.28381 47.8576V3.02116C5.28381 2.31315 5.57271 1.66618 6.04065 1.19824C6.50859 0.730306 7.15149 0.441406 7.86357 0.441406H43.7929C44.5009 0.441406 45.1479 0.730306 45.6158 1.19824C46.0838 1.66618 46.3727 2.31315 46.3727 3.02116C46.3686 18.6991 46.3686 32.1349 46.3686 47.8617ZM44.4847 14.4022H7.17183V47.8576C7.17183 48.0488 7.24915 48.2197 7.37528 48.3459C7.50142 48.472 7.67232 48.5493 7.86357 48.5493H43.7929C43.9842 48.5493 44.1551 48.472 44.2812 48.3459C44.4073 48.2197 44.4847 48.0488 44.4847 47.8576V14.4022Z" fill="#2F2F2F"/>
</svg>
