<svg width="51" height="51" viewBox="0 0 51 51" fill="none" xmlns="http://www.w3.org/2000/svg">
<path d="M7.04932 31.8596C7.43809 32.9423 7.93486 33.9748 8.52158 34.9563L16.0015 30.4832C15.6957 29.9674 15.4278 29.4188 15.2179 28.8458L7.04932 31.8596Z" fill="#2F2F2F"/>
<path d="M18.7512 43.0669L21.4035 34.773C19.646 34.216 18.1396 33.1835 16.9891 31.852L10.3963 37.5416C12.5708 40.0601 15.4293 42.0101 18.7512 43.0669Z" fill="#2F2F2F"/>
<path d="M41.7106 19.078C41.3218 17.9954 40.825 16.9629 40.2391 15.9875L32.7653 20.4545C33.0711 20.9703 33.3389 21.5189 33.5489 22.0918L41.7106 19.078Z" fill="#2F2F2F"/>
<path d="M30.0072 7.8678L27.3556 16.1617C29.1124 16.7195 30.6257 17.7528 31.7746 19.0887L38.3674 13.4006C36.1937 10.8753 33.3283 8.93059 30.0072 7.8678Z" fill="#2F2F2F"/>
<path d="M24.8661 22.4106C23.1777 22.1428 21.5921 23.2947 21.3243 24.9823C21.0565 26.6714 22.2084 28.2562 23.896 28.5241C25.5843 28.7919 27.1699 27.6415 27.4378 25.9524C27.7056 24.2648 26.5545 22.6784 24.8661 22.4106Z" fill="#2F2F2F"/>
<path d="M32.0379 26.6821C32.1026 26.2712 32.1346 25.8625 32.1346 25.4586C32.1338 21.7091 29.4138 18.4185 25.5966 17.8106C25.1857 17.7459 24.7772 17.714 24.3732 17.714C20.623 17.714 17.3322 20.4347 16.7251 24.252C16.6597 24.662 16.6277 25.0714 16.6277 25.4754C16.6277 29.2264 19.3492 32.5163 23.1657 33.1235C23.5765 33.1889 23.9851 33.22 24.3892 33.22C28.1394 33.22 31.4292 30.4991 32.0379 26.6821ZM24.3891 31.3087C24.0847 31.3087 23.7766 31.2851 23.4661 31.2357C20.5901 30.7815 18.5389 28.295 18.5389 25.4753C18.5389 25.171 18.5632 24.8628 18.6126 24.5516C19.0668 21.6764 21.5533 19.6251 24.3731 19.6251C24.6774 19.6251 24.9856 19.6494 25.2959 19.699C28.1719 20.1532 30.2233 22.6396 30.2233 25.4586C30.2233 25.7629 30.1988 26.0711 30.1494 26.3823C29.6944 29.2582 27.208 31.3087 24.3891 31.3087Z" fill="#2F2F2F"/>
<path d="M29.7743 35.4363H26.4761C26.3505 35.4363 26.2661 35.5117 26.2661 35.625V48.093C26.2661 48.2065 26.3506 48.2817 26.4761 48.2817H29.7743C31.6437 48.2817 32.7362 47.6015 33.2407 46.2229C33.4925 45.5236 33.5976 44.6548 33.5976 41.8586C33.5976 39.0633 33.4925 38.1943 33.2407 37.4951C32.7363 36.1165 31.6437 35.4363 29.7743 35.4363ZM31.0556 45.5237C30.8038 46.1659 30.3419 46.4497 29.5431 46.4497H28.6399C28.5562 46.4497 28.5137 46.4116 28.5137 46.3363V37.3818C28.5137 37.3065 28.5562 37.2685 28.6399 37.2685H29.5431C30.342 37.2685 30.8038 37.5523 31.0556 38.1944C31.2237 38.6661 31.3082 39.2901 31.3082 41.8587C31.3082 44.428 31.2237 45.0513 31.0556 45.5237Z" fill="#2F2F2F"/>
<path d="M41.9153 35.4363H40.1501C40.0246 35.4363 39.9401 35.4927 39.9196 35.625L38.3225 44.2956H38.2593L36.5999 35.625C36.5794 35.4926 36.5163 35.4363 36.39 35.4363H34.5837C34.4156 35.4363 34.3738 35.5117 34.3944 35.625L37.2308 48.093C37.2514 48.2065 37.3145 48.2817 37.4408 48.2817H39.0583C39.1838 48.2817 39.247 48.2064 39.2683 48.093L42.104 35.625C42.1252 35.5116 42.0827 35.4363 41.9153 35.4363Z" fill="#2F2F2F"/>
<path d="M50.1279 37.4952C49.6234 36.1166 48.5309 35.4363 46.6615 35.4363H43.3632C43.2377 35.4363 43.1533 35.5117 43.1533 35.625V48.093C43.1533 48.2065 43.2377 48.2817 43.3632 48.2817H46.6615C48.5309 48.2817 49.6234 47.6015 50.1279 46.2229C50.3797 45.5236 50.4847 44.6548 50.4847 41.8586C50.4847 39.0633 50.3797 38.1944 50.1279 37.4952ZM47.9427 45.5237C47.691 46.1659 47.229 46.4497 46.4301 46.4497H45.527C45.4433 46.4497 45.4015 46.4116 45.4015 46.3363V37.3818C45.4015 37.3065 45.4433 37.2685 45.527 37.2685H46.4301C47.229 37.2685 47.6909 37.5523 47.9427 38.1944C48.1109 38.6661 48.1953 39.2901 48.1953 41.8587C48.1953 44.428 48.1109 45.0513 47.9427 45.5237Z" fill="#2F2F2F"/>
<path d="M8.58019 38.8518C5.48654 35.1959 3.67042 30.4946 3.67042 25.4951C3.67042 24.4162 3.75489 23.3236 3.92911 22.2227C4.74015 17.1189 7.34073 12.7622 10.9967 9.66642C14.6526 6.57208 19.3539 4.75665 24.3534 4.75665C25.4322 4.75665 26.5249 4.84113 27.6259 5.01534C32.7297 5.82638 37.0862 8.42628 40.1821 12.0829C43.2765 15.7388 45.0918 20.4401 45.0918 25.4397C45.0918 26.5185 45.0073 27.6111 44.8332 28.7121C44.6901 29.6121 44.4726 30.4803 44.2223 31.331H47.5442C47.7184 30.6378 47.8645 29.931 47.9785 29.2112C48.1802 27.9452 48.2775 26.6844 48.2775 25.4398C48.2775 19.6642 46.1791 14.237 42.6139 10.0249C39.05 5.81134 34.0025 2.80138 28.125 1.86935C26.859 1.66857 25.5983 1.57111 24.3535 1.57111C18.5779 1.57111 13.1515 3.66954 8.93868 7.23497C4.72511 10.7988 1.71515 15.8463 0.783899 21.7237C0.582043 22.9896 0.48468 24.2503 0.48468 25.4951C0.48468 31.2707 2.58312 36.6971 6.14855 40.9099C9.71232 45.1235 14.7598 48.1334 20.6373 49.0647C21.4621 49.1963 22.2823 49.267 23.0994 49.3119V46.1262C22.4482 46.0852 21.7945 46.0235 21.1364 45.9193C16.0327 45.1083 11.6761 42.5077 8.58019 38.8518Z" fill="#2F2F2F"/>
</svg>
