<svg width="51" height="51" viewBox="0 0 51 51" fill="none" xmlns="http://www.w3.org/2000/svg">
<path fill-rule="evenodd" clip-rule="evenodd" d="M15.8605 14.3789C15.8605 13.8611 16.2803 13.4414 16.798 13.4414H33.4647C33.9825 13.4414 34.4022 13.8611 34.4022 14.3789C34.4022 14.8967 33.9825 15.3164 33.4647 15.3164H16.798C16.2803 15.3164 15.8605 14.8967 15.8605 14.3789ZM22.8374 26.0624C23.132 25.8962 23.4933 25.9016 23.7828 26.0765C25.2084 26.9377 26.4095 28.1244 27.288 29.5394C27.8853 30.5017 28.3218 31.5508 28.5838 32.6456C28.6141 32.6127 28.6437 32.5791 28.6727 32.545C28.9967 32.1642 29.2369 31.7196 29.3776 31.2399C29.4843 30.8765 29.799 30.613 30.1755 30.5719C30.5519 30.5308 30.9161 30.7202 31.0986 31.052C32.113 32.8959 32.6135 34.9783 32.548 37.0815C32.5465 38.6041 32.3113 40.4628 31.2117 41.9557C30.0679 43.5087 28.132 44.4811 25.1405 44.4831C24.162 44.5012 23.1897 44.3222 22.2818 43.9567C21.3709 43.5899 20.5435 43.043 19.8491 42.3486C19.1548 41.6543 18.6078 40.8269 18.2411 39.916C17.8755 39.008 17.6965 38.0357 17.7147 37.0571C17.7178 34.4863 18.9983 33.0915 20.1019 31.8896C20.1627 31.8233 20.223 31.7577 20.2825 31.6925C20.8589 31.0604 21.3633 30.4741 21.7369 29.7412C22.1022 29.0245 22.3605 28.1283 22.3605 26.8789C22.3605 26.5406 22.5428 26.2286 22.8374 26.0624ZM24.0801 28.6134C23.9377 29.3606 23.7041 30.0107 23.4074 30.5927C22.9098 31.5688 22.2528 32.3146 21.6678 32.956C21.6246 33.0034 21.5817 33.0503 21.5393 33.0967C20.421 34.3202 19.5897 35.2297 19.5897 37.0664C19.5897 37.0726 19.5896 37.0788 19.5895 37.085C19.575 37.8143 19.708 38.539 19.9804 39.2157C20.2529 39.8924 20.6592 40.507 21.175 41.0228C21.6907 41.5386 22.3054 41.9449 22.9821 42.2174C23.6587 42.4898 24.3834 42.6228 25.1127 42.6083C25.1159 42.6082 25.1192 42.6081 25.1224 42.6081C25.1254 42.6081 25.1284 42.6081 25.1314 42.6081C27.6971 42.6081 28.998 41.7996 29.702 40.8438C30.4478 39.8312 30.673 38.4578 30.673 37.0664C30.673 37.0563 30.6732 37.0461 30.6735 37.036C30.7109 35.8835 30.5461 34.7383 30.1911 33.651C30.1615 33.6877 30.1314 33.724 30.1009 33.76C29.6064 34.3411 28.9952 34.8118 28.307 35.1412C28.029 35.2742 27.7035 35.2622 27.4361 35.109C27.1688 34.9558 26.9938 34.6811 26.968 34.374C26.8534 33.0096 26.4171 31.6917 25.695 30.5284C25.2508 29.8129 24.7062 29.1683 24.0801 28.6134Z" fill="#2F2F2F"/>
<path fill-rule="evenodd" clip-rule="evenodd" d="M5.42303 6.06641C5.42303 5.54864 5.84277 5.12891 6.36053 5.12891H43.8605C44.3783 5.12891 44.798 5.54864 44.798 6.06641C44.798 6.58417 44.3783 7.00391 43.8605 7.00391H42.7147V42.6289H43.8605C44.3783 42.6289 44.798 43.0486 44.798 43.5664C44.798 44.0842 44.3783 44.5039 43.8605 44.5039H6.36053C5.84277 44.5039 5.42303 44.0842 5.42303 43.5664C5.42303 43.0486 5.84277 42.6289 6.36053 42.6289H7.50637V7.00391H6.36053C5.84277 7.00391 5.42303 6.58417 5.42303 6.06641ZM9.38137 7.00391V42.6289H40.8397V7.00391H9.38137Z" fill="#2F2F2F"/>
</svg>
