<svg width="51" height="51" viewBox="0 0 51 51" fill="none" xmlns="http://www.w3.org/2000/svg">
<path d="M35.1836 7.95502C33.0382 7.95502 28.8715 10.9853 25.3351 10.9853C21.7988 10.9853 17.3806 7.95502 15.4866 7.95502C2.4821 7.95502 -4.96789 42.9277 4.75483 42.9277C12.9624 42.9277 14.0669 32.7005 25.3033 32.7005C34.3942 32.7005 39.7291 42.8035 45.7897 42.8035C55.5109 42.8035 48.1897 7.95502 35.1836 7.95502ZM14.7276 27.652C10.9624 27.652 7.90937 24.5974 7.90937 20.8338C7.90937 17.0702 10.9624 14.0156 14.7276 14.0156C18.4927 14.0156 21.5457 17.0687 21.5457 20.8338C21.5457 24.5974 18.4942 27.652 14.7276 27.652ZM32.8154 23.8641C31.9775 23.8641 31.3003 23.1868 31.3003 22.349C31.3003 21.5111 31.9775 20.8338 32.8154 20.8338C33.6533 20.8338 34.3306 21.5111 34.3306 22.349C34.3306 23.1868 33.6533 23.8641 32.8154 23.8641ZM37.4563 28.4096C36.6185 28.4096 35.9412 27.7323 35.9412 26.8944C35.9412 26.0565 36.6185 25.3793 37.4563 25.3793C38.2942 25.3793 38.9715 26.0565 38.9715 26.8944C38.9715 27.7323 38.2927 28.4096 37.4563 28.4096ZM37.4563 19.3187C36.6185 19.3187 35.9412 18.6414 35.9412 17.8035C35.9412 16.9656 36.6185 16.2883 37.4563 16.2883C38.2942 16.2883 38.9715 16.9656 38.9715 17.8035C38.9715 18.6414 38.2927 19.3187 37.4563 19.3187ZM42.0018 23.8641C41.1639 23.8641 40.4866 23.1868 40.4866 22.349C40.4866 21.5111 41.1639 20.8338 42.0018 20.8338C42.8397 20.8338 43.5169 21.5111 43.5169 22.349C43.5169 23.1868 42.8381 23.8641 42.0018 23.8641ZM14.7276 17.0459C12.6366 17.0459 10.9397 18.7414 10.9397 20.8338C10.9397 22.9262 12.6366 24.6217 14.7276 24.6217C16.82 24.6217 18.5154 22.9262 18.5154 20.8338C18.5154 18.7414 16.82 17.0459 14.7276 17.0459Z" fill="#2F2F2F"/>
</svg>
