<svg width="51" height="51" viewBox="0 0 51 51" fill="none" xmlns="http://www.w3.org/2000/svg">
<g clip-path="url(#clip0_62_41)">
<path d="M31.1962 50.0508H8.6181C7.9931 50.0508 7.44623 49.543 7.44623 48.8789V5.36328C7.44623 4.15234 7.91498 2.98047 8.77435 2.12109C9.63373 1.30078 10.8056 0.832031 12.0165 0.832031H38.8525C41.3915 0.832031 43.4228 2.90234 43.4228 5.40234V48.918C43.4228 49.543 42.915 50.0898 42.2509 50.0898H31.1962V50.0508ZM41.1181 47.7461V5.40234C41.1181 4.15234 40.1025 3.13672 38.8525 3.13672H32.3681V47.7461H41.1181ZM29.6337 47.7461V3.13672H12.0165C10.7665 3.13672 9.78998 4.15234 9.75092 5.36328V47.707H29.6337V47.7461ZM33.5009 36.7305V13.8398H35.8447V36.7305H33.5009ZM26.5478 36.7305V13.8398H28.8915V36.7305H26.5478ZM13.8134 30.7539C13.1884 30.7539 12.6415 30.2461 12.6415 29.582V18.4883C12.6415 17.8633 13.1494 17.3164 13.8134 17.3164H24.0478C24.6728 17.3164 25.2197 17.8242 25.2197 18.4883V29.582C25.2197 30.207 24.7119 30.7539 24.0478 30.7539H13.8134ZM22.915 28.4102V27.4727H14.9853V28.4102H22.915ZM22.915 25.1289V19.6602H20.2197V22.2383H17.8759V19.6602H14.9853V25.168H22.915V25.1289Z" fill="#2F2F2F"/>
</g>
<defs>
<clipPath id="clip0_62_41">
<rect width="50" height="50" fill="white" transform="translate(0.454041 0.441406)"/>
</clipPath>
</defs>
</svg>
