<svg width="51" height="54" viewBox="0 0 51 54" fill="none" xmlns="http://www.w3.org/2000/svg">
<g clip-path="url(#clip0_62_15)">
<path d="M35.5715 11.9246C35.4673 11.0774 34.9975 10.3279 34.3 9.8997C30.4498 7.53511 25.6751 7.50251 21.798 9.79979C21.4203 10.0235 20.9518 9.97815 20.6183 9.68612C17.0433 6.55223 12.1913 5.77232 8.06729 7.58254C3.54679 9.56765 0.625793 14.2025 0.625793 19.3893V45.2677C0.625793 46.9197 1.88954 48.2592 3.44804 48.2592C5.00654 48.2592 6.27005 46.9197 6.27005 45.2677V19.3893C6.27005 16.631 7.8238 14.1662 10.2278 13.1102C12.3148 12.1946 14.6568 12.5094 16.4426 13.8837C16.8636 14.2078 16.9953 14.808 16.7543 15.297C14.7563 19.3459 14.8418 24.2489 17.0135 28.2234C17.4175 28.963 18.1236 29.4615 18.923 29.5722C19.7228 29.683 20.5255 29.3931 21.0958 28.7892L34.833 14.2266C35.4035 13.6224 35.6758 12.7718 35.5715 11.9246Z" fill="#2F2F2F"/>
<path d="M30.073 25.8408C29.5773 25.8408 29.0943 25.6285 28.7433 25.2559C28.3923 24.8905 28.1915 24.3719 28.1915 23.8464C28.1915 23.3214 28.3923 22.8094 28.7433 22.4368C29.446 21.6994 30.7063 21.6994 31.4026 22.4368C31.7536 22.8094 31.9548 23.3214 31.9548 23.8464C31.9548 24.3788 31.7536 24.8905 31.4026 25.2559C31.0576 25.6285 30.5685 25.8408 30.073 25.8408Z" fill="#2F2F2F"/>
<path d="M36.5328 33.5131C35.7925 32.735 35.7925 31.4728 36.5328 30.6876C37.2663 29.9096 38.458 29.9096 39.1923 30.6876C39.9263 31.4728 39.9263 32.7353 39.1923 33.5131C38.8223 33.8986 38.3388 34.0979 37.8628 34.0979C37.3798 34.0979 36.8965 33.8986 36.5328 33.5131ZM32.638 29.3844C31.904 28.6068 31.904 27.3439 32.638 26.5661C33.3718 25.7878 34.563 25.7878 35.2975 26.5661C36.0313 27.3439 36.0313 28.6068 35.2975 29.3844C34.9338 29.7766 34.4503 29.9697 33.9678 29.9697C33.485 29.9697 33.0015 29.7768 32.638 29.3844Z" fill="#2F2F2F"/>
<path d="M41.7508 38.22C41.2558 38.22 40.7728 38.0077 40.4213 37.6413C40.0705 37.2628 39.8693 36.7511 39.8693 36.2251C39.8693 35.707 40.0705 35.1884 40.4213 34.8158C41.1238 34.0789 42.378 34.0714 43.0808 34.8158C43.4318 35.1884 43.6325 35.7004 43.6325 36.2251C43.6325 36.7509 43.4318 37.2695 43.0808 37.6413C42.7293 38.0077 42.246 38.22 41.7508 38.22Z" fill="#2F2F2F"/>
<path d="M26.6108 30.1555C26.1155 30.1555 25.626 29.9427 25.2745 29.5767C24.9298 29.2052 24.729 28.6866 24.729 28.1611C24.729 27.6356 24.9298 27.1242 25.2745 26.7518C25.9835 26.0069 27.2381 26.0138 27.9403 26.7518C28.2911 27.1242 28.492 27.6425 28.492 28.1611C28.492 28.6863 28.2911 29.2049 27.9403 29.5767C27.5893 29.9432 27.106 30.1555 26.6108 30.1555Z" fill="#2F2F2F"/>
<path d="M27.595 39.0645C27.3068 38.0077 27.8905 36.9037 28.8875 36.5982C29.8843 36.2985 30.9258 36.9103 31.2145 37.9671C31.4968 39.024 30.9193 40.1343 29.9221 40.4335C29.7468 40.4868 29.5713 40.5138 29.4015 40.5138C28.5798 40.5138 27.8338 39.9419 27.595 39.0645ZM26.1968 33.892C25.9086 32.8283 26.4918 31.7248 27.4885 31.4256C28.4858 31.1198 29.5273 31.7314 29.8155 32.7946C30.098 33.8525 29.5205 34.9554 28.5238 35.2546C28.348 35.3079 28.1785 35.3349 28.003 35.3349C27.1878 35.3349 26.4351 34.7625 26.1968 33.892Z" fill="#2F2F2F"/>
<path d="M30.8 45.6927C30.3048 45.6927 29.8218 45.4794 29.471 45.1079C29.1195 44.7353 28.9188 44.2167 28.9188 43.6981C28.9188 43.1734 29.1195 42.6542 29.471 42.2819C30.1733 41.5439 31.4275 41.5439 32.13 42.2819C32.4813 42.654 32.682 43.1731 32.682 43.6981C32.682 44.2167 32.4813 44.7353 32.13 45.1079C31.7788 45.4794 31.2958 45.6927 30.8 45.6927Z" fill="#2F2F2F"/>
<path d="M34.3 22.3709C33.8043 22.3709 33.3153 22.1581 32.9706 21.786C32.6196 21.42 32.4183 20.9017 32.4183 20.3762C32.4183 19.8507 32.6196 19.3393 32.9706 18.9667C33.6666 18.2223 34.927 18.2223 35.6298 18.9667C35.9808 19.3395 36.1815 19.8507 36.1815 20.3762C36.1815 20.9017 35.9808 21.4139 35.6298 21.786C35.2783 22.1581 34.7955 22.3709 34.3 22.3709Z" fill="#2F2F2F"/>
<path d="M43.331 25.7016C42.3468 25.3495 41.814 24.2192 42.146 23.1754C42.4783 22.1313 43.5448 21.5663 44.5295 21.9193C45.514 22.2712 46.0408 23.4012 45.7148 24.4455C45.445 25.2763 44.7175 25.8079 43.927 25.8079C43.7328 25.8076 43.5258 25.7684 43.331 25.7016ZM38.515 23.986C37.5303 23.6344 36.997 22.5036 37.3293 21.4598C37.6615 20.4162 38.7283 19.8507 39.7125 20.2034C40.6973 20.5559 41.2308 21.6853 40.898 22.7297C40.6345 23.5607 39.9013 24.0857 39.117 24.0857C38.9158 24.0859 38.715 24.0528 38.515 23.986Z" fill="#2F2F2F"/>
<path d="M48.7443 27.523C48.2485 27.523 47.7658 27.3102 47.415 26.9381C47.0638 26.566 46.8628 26.0541 46.8628 25.5286C46.8628 25.0036 47.0638 24.4847 47.415 24.1193C48.1173 23.3744 49.3715 23.3744 50.074 24.1193C50.4248 24.4916 50.626 25.0036 50.626 25.5286C50.626 26.0541 50.4248 26.5663 50.074 26.9381C49.7228 27.3102 49.24 27.523 48.7443 27.523Z" fill="#2F2F2F"/>
</g>
<defs>
<clipPath id="clip0_62_15">
<rect width="50" height="53" fill="white" transform="translate(0.625793 0.941406)"/>
</clipPath>
</defs>
</svg>
