<svg width="51" height="51" viewBox="0 0 51 51" fill="none" xmlns="http://www.w3.org/2000/svg">
<path d="M3.71979 38.1367C3.05573 38.1367 2.54791 37.6289 2.54791 36.9648V7.31641C2.54791 6.65234 3.05573 6.14453 3.71979 6.14453H46.8057C47.4698 6.14453 47.9776 6.65234 47.9776 7.31641V36.9648C47.9776 37.7461 47.4307 38.1367 46.8839 38.1367H3.71979ZM4.89166 35.9883H45.712V8.56641H4.89166V35.9883Z" fill="#2F2F2F"/>
<path d="M36.1026 32.7852C35.4385 32.7852 34.9307 32.2773 34.9307 31.6133C34.9307 30.9492 35.4385 30.4414 36.1026 30.4414H40.6729C41.337 30.4414 41.8448 30.9492 41.8448 31.6133C41.8448 32.2773 41.2198 32.7852 40.6729 32.7852H36.1026ZM25.2823 43.6055C24.6182 43.6055 24.1104 43.0977 24.1104 42.4336V37.4727C24.1104 36.8086 24.6182 36.3008 25.2823 36.3008C25.9464 36.3008 26.4542 36.8086 26.4542 37.4727V42.5117C26.4151 43.0977 25.9073 43.6055 25.2823 43.6055Z" fill="#2F2F2F"/>
<path d="M15.712 44.6211C15.0479 44.6211 14.5401 44.1133 14.5401 43.4492C14.5401 42.7852 15.0479 42.2773 15.712 42.2773H34.8917C35.5557 42.2773 36.0635 42.7852 36.0635 43.4492C36.0635 44.1133 35.4385 44.6211 34.8917 44.6211H15.712Z" fill="#2F2F2F"/>
</svg>
