<svg width="30" height="31" viewBox="0 0 30 31" fill="none" xmlns="http://www.w3.org/2000/svg">
<path d="M14.0945 0.248129L0.404837 12.5548C0.150607 12.7485 0.000124857 13.058 0 13.3875V29.8634C5.42259e-05 30.4321 0.439837 30.8931 0.982353 30.8931H28.4882C29.0308 30.8931 29.4705 30.4321 29.4706 29.8634V13.3875C29.4705 13.0721 29.3327 12.7742 29.0965 12.5789L15.378 0.248129C15.015 -0.0781582 14.4675 -0.0872301 14.0945 0.248129ZM14.7315 2.38405L26.8478 13.2668L14.7353 21.4303L2.62281 13.2668L14.7315 2.38405ZM1.96471 15.274L10.8116 21.2352L1.96471 27.8602V15.274ZM27.5059 15.274V27.8602L18.659 21.2352L27.5059 15.274ZM12.5922 22.4359L14.2038 23.522C14.5275 23.7403 14.943 23.7403 15.2668 23.522L16.8804 22.4359L25.4222 28.8336H4.04837L12.5922 22.4359Z" fill="#A2307E"/>
</svg>
