<svg width="30" height="32" viewBox="0 0 30 32" fill="none" xmlns="http://www.w3.org/2000/svg">
<path d="M28.6943 21.9147L26.0604 19.1537C25.2753 18.3372 24.2155 17.8769 23.1096 17.872C22.0037 17.8671 20.9402 18.3179 20.1484 19.1273C19.726 19.5727 19.1686 19.8498 18.5723 19.911C17.976 19.9721 17.378 19.8135 16.8812 19.4624C14.9203 18.0906 13.2358 16.3283 11.9234 14.2755C11.5943 13.7489 11.4485 13.1195 11.5104 12.4934C11.5724 11.8673 11.8383 11.2826 12.2634 10.838C13.0285 10.0073 13.4531 8.89561 13.4461 7.7409C13.4392 6.58619 13.0013 5.4802 12.2263 4.65964L9.59234 1.89863C8.80377 1.07486 7.73587 0.612305 6.62258 0.612305C5.50929 0.612305 4.44139 1.07486 3.65282 1.89863L2.89497 2.69431C-1.05593 6.83582 -0.760216 15.543 7.46005 24.1549C12.4166 29.3518 17.4055 31.528 21.451 31.528C22.6419 31.5696 23.8287 31.3623 24.9424 30.9182C26.056 30.4741 27.0743 29.8022 27.9377 28.9414L28.6967 28.1458C29.484 27.3188 29.926 26.198 29.9256 25.0297C29.9251 23.8614 29.4823 22.741 28.6943 21.9147ZM27.0014 26.3712L26.2424 27.1669C23.1296 30.4299 16.2586 29.8338 9.15056 22.3815C2.04253 14.9293 1.47264 7.72185 4.58547 4.45884L5.33854 3.66442C5.67761 3.31028 6.13675 3.11144 6.6154 3.11144C7.09405 3.11144 7.55319 3.31028 7.89226 3.66442L10.5262 6.42543C10.8591 6.77615 11.0481 7.24937 11.0528 7.7441C11.0575 8.23883 10.8775 8.71589 10.5513 9.07349C9.74233 9.92693 9.23768 11.0459 9.12195 12.2429C9.00621 13.4399 9.2864 14.6422 9.9156 15.6484C11.4068 17.9877 13.3244 19.9948 15.5582 21.5545C16.5153 22.2141 17.6592 22.5096 18.7991 22.3915C19.9389 22.2734 21.0056 21.7489 21.821 20.9057C22.1615 20.5597 22.6179 20.3676 23.092 20.3706C23.5662 20.3737 24.0203 20.5716 24.3567 20.922L26.9907 23.683C27.1604 23.8584 27.2954 24.0672 27.3879 24.2975C27.4804 24.5277 27.5285 24.7749 27.5295 25.0247C27.5305 25.2746 27.4844 25.5222 27.3937 25.7532C27.3031 25.9843 27.1698 26.1943 27.0014 26.3712Z" fill="#89023E"/>
</svg>
